M48
;Layer_Color=9474304
;FILE_FORMAT=2:4
INCH,LZ
;TYPE=PLATED
T1F00S00C0.0120
T2F00S00C0.0236
T3F00S00C0.0354
T4F00S00C0.0394
%
T01
X01896Y00315
Y00391
X01934
X01953Y00429
X01991
X02046Y00444
X02102Y00414
X01991Y00353
X01915Y00429
X01934Y00467
X01896
X02084Y00239
X02131Y00162
X02168Y00147
X02163Y00188
X02271Y00231
X02251Y00265
X02234Y00306
X02286Y00385
X02291Y0042
X02352Y00163
X02371Y00125
X02333
X02314Y00087
X0182Y00315
X01851Y00368
X01639Y00428
X01516Y00337
X01456Y00269
X01443Y00231
X01495Y00193
X01536Y00174
X01339Y00231
X01303Y0026
X01372Y00273
X01338Y00364
X01334Y00426
X01388Y00391
X01204Y00436
X01136Y00467
X01098
X0106Y00386
X01008Y00383
X00946Y00391
X00915Y00384
X00917Y0042
X00965Y00429
X00946Y00467
X00965Y00353
X0092Y00348
X00921Y00313
X00946Y0029
X01004
X01108Y00291
X01156Y00362
X01111Y00162
X01107Y00074
X01003Y00049
X01016Y0016
X01239Y00176
X01269Y00204
X00811Y00263
X00718Y00264
X00659Y00261
X00589Y00256
X00585Y00308
X00581Y0037
X00623Y00353
X00656Y00349
X00674Y00414
X00691Y00458
X00759Y00468
X0075Y00221
X00471Y00125
X00509Y00049
X00357Y00125
X003Y00163
Y00239
Y00315
Y00391
X00338
X00376
X00414
X00262
X00224
X00205Y00353
Y00277
X00186Y00239
X00147Y00256
X00091Y00201
X0011Y00163
X00129Y00125
X00091
X0011Y00087
X00224
X00205Y00049
X00281Y00125
X00243Y00201
Y00505
X00281
Y00581
X00229Y00595
X00232Y0056
X00186Y00619
X00205Y00657
X00167
X00129
X00091
X00053
X00072Y00619
X0011
X00097Y00552
X00205Y00809
X00319
X00389Y00791
X00509Y00809
X0049Y00695
X00566Y00619
X00584Y00542
X00546
X0051
X00433Y00505
X00385Y00563
X00755Y00566
X00805Y00627
X00851Y00711
X0085Y00751
X00777Y00789
X00677Y007511
X00647Y007251
X00613Y007491
X00908Y00847
X01026Y00742
X01151Y00733
X0123Y00721
X01274Y00704
X01386Y006906
X01357Y006616
X01374Y00491
X01339Y00481
X01487Y00501
X01523Y00478
X01535Y0065
X01516Y00722
X01698Y00755
X01725Y00733
X01148Y00592
X01136Y00543
X01098
X0106
X01022
X01041Y00505
X01079
X01117
X01155
X00927
X00886Y00479
X00882Y00561
X01012Y00612
X01896Y00543
X01934Y00695
X01953Y00733
X01915
X02016Y0066
X02061
X02097Y0065
Y00562
X02089Y00507
X02212Y00483
X02296Y00482
X02283Y00524
X02314Y00543
X02282Y00586
X02225Y00592
X022105Y00658
X02271Y00644
X02314Y00619
X02333Y00733
X02352Y00771
T02
X016337Y003387
X017203
Y005513
X016337
T03
X01956Y00045
X02056
X02156
X02256
X02356
X01856
X01756
X01656
X01556
X01456
X01356
X01256
X01156
X01056
X00956
X00856
X00756
X00656
X00556
X00456
X00356
X00256
X00156
X00056
Y00845
X00156
X00256
X00356
X00456
X00556
X00656
X00756
X00856
X00956
X01056
X01156
X01256
X01356
X01456
X01556
X01656
X01756
X01856
X01767Y00706
X01667
X01567
X01467
X01867
X01956Y00845
X02056
X02156
X02256
X02356
T04
X00053Y003161
Y00576
M30
