G04 Layer_Color=65535*
%FSLAX24Y24*%
%MOIN*%
G70*
G01*
G75*
%ADD10C,0.0080*%
%ADD37C,0.0100*%
%ADD40C,0.0150*%
%ADD52C,0.0236*%
%ADD53C,0.0098*%
%ADD54C,0.0050*%
%ADD55C,0.0079*%
%ADD56C,0.0080*%
%ADD57C,0.0080*%
%ADD58C,0.0070*%
%ADD59C,0.0090*%
G36*
X10256Y4494D02*
X10259D01*
X10264Y4493D01*
X10273Y4492D01*
X10284Y4489D01*
X10296Y4485D01*
X10309Y4478D01*
X10315Y4475D01*
X10321Y4471D01*
X10322D01*
X10323Y4470D01*
X10324Y4468D01*
X10326Y4466D01*
X10333Y4461D01*
X10339Y4454D01*
X10347Y4445D01*
X10355Y4434D01*
X10362Y4421D01*
X10369Y4407D01*
Y4407D01*
X10369Y4409D01*
X10370Y4410D01*
X10372Y4412D01*
X10375Y4418D01*
X10381Y4425D01*
X10387Y4433D01*
X10395Y4441D01*
X10404Y4448D01*
X10414Y4455D01*
X10414D01*
X10415Y4455D01*
X10416Y4456D01*
X10418Y4457D01*
X10424Y4460D01*
X10431Y4462D01*
X10439Y4465D01*
X10449Y4468D01*
X10459Y4470D01*
X10470Y4470D01*
X10476D01*
X10480Y4470D01*
X10485Y4469D01*
X10491Y4468D01*
X10497Y4467D01*
X10505Y4465D01*
X10512Y4463D01*
X10521Y4460D01*
X10529Y4457D01*
X10538Y4453D01*
X10547Y4448D01*
X10556Y4443D01*
X10566Y4437D01*
X10575Y4430D01*
X10575Y4429D01*
X10577Y4427D01*
X10581Y4424D01*
X10584Y4420D01*
X10589Y4414D01*
X10595Y4407D01*
X10601Y4400D01*
X10607Y4391D01*
X10613Y4382D01*
X10619Y4371D01*
X10624Y4359D01*
X10629Y4347D01*
X10633Y4333D01*
X10637Y4319D01*
X10639Y4304D01*
X10639Y4288D01*
Y4288D01*
Y4285D01*
Y4282D01*
X10639Y4278D01*
X10638Y4272D01*
X10637Y4265D01*
X10636Y4258D01*
X10635Y4250D01*
X10631Y4233D01*
X10628Y4224D01*
X10624Y4215D01*
X10620Y4207D01*
X10615Y4198D01*
X10609Y4189D01*
X10603Y4181D01*
X10602Y4180D01*
X10601Y4179D01*
X10599Y4177D01*
X10596Y4174D01*
X10592Y4171D01*
X10587Y4167D01*
X10582Y4163D01*
X10576Y4159D01*
X10568Y4154D01*
X10561Y4150D01*
X10552Y4145D01*
X10543Y4142D01*
X10532Y4138D01*
X10521Y4135D01*
X10510Y4132D01*
X10497Y4130D01*
X10486Y4226D01*
X10486D01*
X10487Y4226D01*
X10490D01*
X10492Y4227D01*
X10496Y4228D01*
X10500Y4229D01*
X10508Y4231D01*
X10517Y4234D01*
X10527Y4237D01*
X10536Y4241D01*
X10539Y4244D01*
X10542Y4247D01*
X10543Y4248D01*
X10545Y4250D01*
X10547Y4253D01*
X10550Y4258D01*
X10553Y4264D01*
X10556Y4271D01*
X10557Y4279D01*
X10558Y4289D01*
Y4289D01*
Y4290D01*
Y4292D01*
X10557Y4294D01*
X10557Y4301D01*
X10555Y4309D01*
X10552Y4317D01*
X10548Y4327D01*
X10543Y4337D01*
X10535Y4346D01*
X10534Y4347D01*
X10531Y4349D01*
X10526Y4353D01*
X10519Y4357D01*
X10510Y4361D01*
X10500Y4365D01*
X10488Y4367D01*
X10476Y4369D01*
X10471D01*
X10465Y4367D01*
X10458Y4366D01*
X10450Y4364D01*
X10442Y4361D01*
X10434Y4356D01*
X10426Y4350D01*
X10426Y4350D01*
X10424Y4347D01*
X10420Y4343D01*
X10417Y4337D01*
X10414Y4330D01*
X10410Y4322D01*
X10408Y4312D01*
X10407Y4301D01*
Y4300D01*
Y4300D01*
Y4296D01*
X10408Y4291D01*
X10409Y4285D01*
X10325Y4303D01*
Y4304D01*
Y4306D01*
X10326Y4309D01*
Y4313D01*
Y4313D01*
Y4314D01*
Y4316D01*
X10325Y4319D01*
Y4322D01*
X10325Y4326D01*
X10323Y4335D01*
X10321Y4345D01*
X10317Y4356D01*
X10312Y4365D01*
X10305Y4374D01*
X10304Y4375D01*
X10301Y4377D01*
X10297Y4381D01*
X10291Y4385D01*
X10283Y4389D01*
X10273Y4392D01*
X10262Y4394D01*
X10250Y4395D01*
X10246D01*
X10241Y4395D01*
X10235Y4394D01*
X10229Y4392D01*
X10223Y4389D01*
X10216Y4386D01*
X10210Y4381D01*
X10210Y4380D01*
X10208Y4378D01*
X10205Y4375D01*
X10203Y4371D01*
X10200Y4365D01*
X10198Y4359D01*
X10196Y4352D01*
X10195Y4344D01*
Y4342D01*
Y4340D01*
X10196Y4336D01*
X10198Y4331D01*
X10199Y4325D01*
X10202Y4318D01*
X10206Y4311D01*
X10212Y4305D01*
X10212Y4304D01*
X10215Y4302D01*
X10219Y4299D01*
X10224Y4295D01*
X10232Y4290D01*
X10242Y4286D01*
X10253Y4281D01*
X10266Y4278D01*
X10248Y4186D01*
X10248D01*
X10245Y4187D01*
X10243Y4188D01*
X10239Y4189D01*
X10234Y4191D01*
X10229Y4193D01*
X10223Y4195D01*
X10216Y4199D01*
X10202Y4205D01*
X10188Y4214D01*
X10174Y4223D01*
X10167Y4229D01*
X10161Y4234D01*
X10160Y4235D01*
X10159Y4236D01*
X10157Y4239D01*
X10154Y4243D01*
X10150Y4248D01*
X10147Y4253D01*
X10143Y4259D01*
X10138Y4266D01*
X10134Y4275D01*
X10130Y4283D01*
X10126Y4293D01*
X10123Y4303D01*
X10120Y4314D01*
X10117Y4325D01*
X10116Y4337D01*
X10116Y4350D01*
Y4351D01*
Y4354D01*
Y4357D01*
X10116Y4362D01*
X10117Y4368D01*
X10118Y4375D01*
X10119Y4382D01*
X10121Y4390D01*
X10123Y4399D01*
X10125Y4407D01*
X10128Y4416D01*
X10132Y4425D01*
X10137Y4434D01*
X10142Y4442D01*
X10148Y4450D01*
X10155Y4457D01*
X10155Y4458D01*
X10157Y4459D01*
X10159Y4461D01*
X10162Y4463D01*
X10165Y4466D01*
X10170Y4469D01*
X10175Y4472D01*
X10182Y4476D01*
X10188Y4480D01*
X10195Y4483D01*
X10203Y4486D01*
X10212Y4489D01*
X10220Y4491D01*
X10229Y4493D01*
X10239Y4494D01*
X10249Y4495D01*
X10253D01*
X10256Y4494D01*
D02*
G37*
G36*
X10264Y4900D02*
X10272Y4899D01*
X10281Y4897D01*
X10292Y4895D01*
X10303Y4892D01*
X10314Y4887D01*
X10315D01*
X10315Y4887D01*
X10317Y4886D01*
X10319Y4885D01*
X10326Y4882D01*
X10334Y4877D01*
X10343Y4872D01*
X10354Y4865D01*
X10366Y4856D01*
X10378Y4846D01*
X10379Y4845D01*
X10382Y4842D01*
X10388Y4837D01*
X10395Y4830D01*
X10400Y4825D01*
X10405Y4820D01*
X10411Y4815D01*
X10417Y4809D01*
X10423Y4802D01*
X10430Y4795D01*
X10438Y4787D01*
X10446Y4779D01*
X10446Y4778D01*
X10447Y4776D01*
X10450Y4774D01*
X10453Y4771D01*
X10456Y4768D01*
X10460Y4763D01*
X10470Y4754D01*
X10479Y4743D01*
X10489Y4733D01*
X10498Y4724D01*
X10502Y4720D01*
X10505Y4717D01*
X10506Y4716D01*
X10508Y4714D01*
X10511Y4711D01*
X10515Y4707D01*
X10520Y4703D01*
X10526Y4698D01*
X10538Y4688D01*
Y4865D01*
X10630Y4846D01*
Y4535D01*
X10628D01*
X10626Y4536D01*
X10624Y4536D01*
X10621Y4537D01*
X10617Y4537D01*
X10607Y4539D01*
X10596Y4542D01*
X10584Y4546D01*
X10572Y4551D01*
X10559Y4557D01*
X10558D01*
X10557Y4557D01*
X10556Y4558D01*
X10553Y4560D01*
X10550Y4562D01*
X10547Y4564D01*
X10538Y4569D01*
X10528Y4575D01*
X10517Y4582D01*
X10506Y4591D01*
X10495Y4600D01*
X10495Y4601D01*
X10493Y4601D01*
X10492Y4603D01*
X10490Y4605D01*
X10486Y4608D01*
X10482Y4612D01*
X10478Y4616D01*
X10472Y4622D01*
X10466Y4628D01*
X10459Y4634D01*
X10451Y4642D01*
X10442Y4651D01*
X10434Y4660D01*
X10423Y4670D01*
X10412Y4682D01*
X10400Y4694D01*
X10400Y4695D01*
X10398Y4697D01*
X10396Y4699D01*
X10392Y4703D01*
X10389Y4707D01*
X10384Y4712D01*
X10374Y4722D01*
X10363Y4733D01*
X10352Y4744D01*
X10348Y4749D01*
X10343Y4753D01*
X10339Y4757D01*
X10336Y4760D01*
X10335Y4760D01*
X10335Y4761D01*
X10331Y4764D01*
X10326Y4768D01*
X10320Y4773D01*
X10313Y4779D01*
X10304Y4784D01*
X10296Y4789D01*
X10289Y4793D01*
X10288Y4794D01*
X10285Y4795D01*
X10281Y4796D01*
X10276Y4798D01*
X10271Y4800D01*
X10265Y4801D01*
X10259Y4802D01*
X10253Y4803D01*
X10248D01*
X10244Y4802D01*
X10238Y4801D01*
X10231Y4799D01*
X10224Y4796D01*
X10217Y4792D01*
X10210Y4787D01*
X10210Y4786D01*
X10208Y4784D01*
X10205Y4781D01*
X10202Y4776D01*
X10199Y4771D01*
X10197Y4765D01*
X10195Y4757D01*
X10194Y4749D01*
Y4748D01*
Y4745D01*
X10195Y4740D01*
X10197Y4735D01*
X10199Y4728D01*
X10202Y4721D01*
X10207Y4714D01*
X10213Y4707D01*
X10214Y4707D01*
X10216Y4704D01*
X10221Y4701D01*
X10228Y4697D01*
X10232Y4695D01*
X10237Y4693D01*
X10242Y4690D01*
X10248Y4688D01*
X10254Y4686D01*
X10261Y4684D01*
X10269Y4682D01*
X10278Y4680D01*
X10263Y4583D01*
X10263D01*
X10260Y4583D01*
X10256Y4584D01*
X10251Y4586D01*
X10245Y4587D01*
X10239Y4589D01*
X10231Y4591D01*
X10223Y4594D01*
X10214Y4597D01*
X10205Y4601D01*
X10196Y4606D01*
X10187Y4611D01*
X10178Y4617D01*
X10169Y4623D01*
X10161Y4630D01*
X10154Y4638D01*
X10153Y4638D01*
X10152Y4640D01*
X10150Y4642D01*
X10148Y4645D01*
X10145Y4650D01*
X10142Y4655D01*
X10138Y4661D01*
X10134Y4668D01*
X10131Y4675D01*
X10128Y4684D01*
X10124Y4693D01*
X10122Y4702D01*
X10119Y4712D01*
X10117Y4723D01*
X10116Y4735D01*
X10116Y4747D01*
Y4747D01*
Y4750D01*
Y4753D01*
X10116Y4758D01*
X10117Y4764D01*
X10118Y4771D01*
X10119Y4779D01*
X10121Y4788D01*
X10122Y4796D01*
X10125Y4805D01*
X10128Y4815D01*
X10132Y4824D01*
X10137Y4834D01*
X10142Y4843D01*
X10148Y4851D01*
X10154Y4859D01*
X10155Y4860D01*
X10156Y4861D01*
X10158Y4863D01*
X10162Y4866D01*
X10165Y4869D01*
X10170Y4872D01*
X10175Y4876D01*
X10181Y4880D01*
X10188Y4884D01*
X10195Y4887D01*
X10204Y4891D01*
X10213Y4894D01*
X10222Y4896D01*
X10232Y4899D01*
X10242Y4900D01*
X10253Y4900D01*
X10258D01*
X10264Y4900D01*
D02*
G37*
G36*
X10285Y4009D02*
X10285D01*
X10283Y4009D01*
X10281Y4008D01*
X10278Y4008D01*
X10274Y4007D01*
X10270Y4006D01*
X10260Y4002D01*
X10250Y3998D01*
X10239Y3992D01*
X10229Y3985D01*
X10225Y3981D01*
X10221Y3977D01*
X10220Y3976D01*
X10218Y3972D01*
X10214Y3967D01*
X10210Y3960D01*
X10207Y3951D01*
X10204Y3940D01*
X10202Y3927D01*
X10200Y3913D01*
Y3913D01*
Y3912D01*
Y3909D01*
X10201Y3906D01*
Y3902D01*
X10202Y3897D01*
X10203Y3892D01*
X10204Y3887D01*
X10207Y3874D01*
X10212Y3861D01*
X10218Y3846D01*
X10223Y3839D01*
X10227Y3832D01*
X10228Y3831D01*
X10228Y3830D01*
X10230Y3828D01*
X10232Y3826D01*
X10235Y3822D01*
X10239Y3819D01*
X10243Y3815D01*
X10248Y3810D01*
X10253Y3805D01*
X10259Y3801D01*
X10266Y3795D01*
X10273Y3790D01*
X10281Y3785D01*
X10290Y3780D01*
X10300Y3776D01*
X10310Y3771D01*
X10311D01*
X10313Y3770D01*
X10316Y3769D01*
X10320Y3768D01*
X10325Y3766D01*
X10331Y3764D01*
X10338Y3762D01*
X10345Y3760D01*
X10354Y3758D01*
X10362Y3756D01*
X10381Y3753D01*
X10402Y3750D01*
X10423Y3749D01*
X10429D01*
X10433Y3750D01*
X10439Y3750D01*
X10444Y3751D01*
X10451Y3751D01*
X10458Y3753D01*
X10473Y3756D01*
X10489Y3761D01*
X10497Y3765D01*
X10504Y3769D01*
X10511Y3774D01*
X10518Y3779D01*
X10518Y3779D01*
X10520Y3780D01*
X10521Y3781D01*
X10523Y3784D01*
X10526Y3787D01*
X10528Y3790D01*
X10531Y3794D01*
X10535Y3799D01*
X10541Y3810D01*
X10546Y3822D01*
X10548Y3829D01*
X10550Y3836D01*
X10551Y3844D01*
X10551Y3852D01*
Y3852D01*
Y3854D01*
Y3856D01*
X10551Y3859D01*
Y3862D01*
X10550Y3867D01*
X10548Y3877D01*
X10545Y3888D01*
X10540Y3901D01*
X10533Y3914D01*
X10530Y3920D01*
X10525Y3927D01*
X10525Y3927D01*
X10524Y3928D01*
X10522Y3930D01*
X10520Y3932D01*
X10517Y3935D01*
X10514Y3938D01*
X10510Y3942D01*
X10505Y3946D01*
X10500Y3950D01*
X10494Y3954D01*
X10488Y3958D01*
X10481Y3963D01*
X10473Y3967D01*
X10465Y3971D01*
X10456Y3975D01*
X10446Y3978D01*
X10462Y4084D01*
X10464Y4083D01*
X10466Y4082D01*
X10471Y4081D01*
X10477Y4078D01*
X10484Y4074D01*
X10492Y4071D01*
X10501Y4066D01*
X10511Y4061D01*
X10522Y4054D01*
X10533Y4047D01*
X10543Y4039D01*
X10555Y4031D01*
X10566Y4022D01*
X10576Y4012D01*
X10586Y4001D01*
X10594Y3990D01*
X10595Y3990D01*
X10596Y3987D01*
X10598Y3984D01*
X10602Y3979D01*
X10605Y3973D01*
X10609Y3966D01*
X10613Y3958D01*
X10617Y3948D01*
X10621Y3938D01*
X10625Y3927D01*
X10629Y3915D01*
X10632Y3902D01*
X10635Y3889D01*
X10637Y3875D01*
X10639Y3860D01*
X10639Y3845D01*
Y3844D01*
Y3841D01*
X10639Y3836D01*
X10638Y3829D01*
X10638Y3821D01*
X10637Y3812D01*
X10635Y3802D01*
X10632Y3791D01*
X10629Y3779D01*
X10626Y3767D01*
X10621Y3755D01*
X10616Y3743D01*
X10609Y3731D01*
X10602Y3719D01*
X10593Y3708D01*
X10583Y3698D01*
X10583Y3697D01*
X10581Y3695D01*
X10577Y3693D01*
X10573Y3689D01*
X10567Y3685D01*
X10560Y3681D01*
X10551Y3676D01*
X10542Y3671D01*
X10531Y3666D01*
X10518Y3661D01*
X10505Y3657D01*
X10490Y3653D01*
X10474Y3650D01*
X10457Y3647D01*
X10439Y3645D01*
X10419Y3645D01*
X10411D01*
X10404Y3645D01*
X10396Y3646D01*
X10387Y3647D01*
X10377Y3648D01*
X10366Y3649D01*
X10354Y3651D01*
X10341Y3653D01*
X10328Y3656D01*
X10315Y3660D01*
X10301Y3664D01*
X10287Y3668D01*
X10273Y3674D01*
X10259Y3680D01*
X10258Y3680D01*
X10256Y3681D01*
X10252Y3684D01*
X10247Y3686D01*
X10241Y3690D01*
X10234Y3694D01*
X10227Y3700D01*
X10218Y3705D01*
X10209Y3712D01*
X10200Y3719D01*
X10191Y3728D01*
X10182Y3736D01*
X10173Y3746D01*
X10164Y3756D01*
X10156Y3766D01*
X10148Y3778D01*
X10148Y3779D01*
X10147Y3781D01*
X10145Y3784D01*
X10142Y3789D01*
X10139Y3795D01*
X10136Y3802D01*
X10132Y3810D01*
X10129Y3819D01*
X10125Y3829D01*
X10122Y3839D01*
X10118Y3851D01*
X10116Y3862D01*
X10113Y3875D01*
X10111Y3888D01*
X10110Y3901D01*
X10109Y3915D01*
Y3916D01*
Y3919D01*
X10110Y3923D01*
Y3929D01*
X10111Y3936D01*
X10112Y3944D01*
X10113Y3953D01*
X10115Y3963D01*
X10117Y3973D01*
X10121Y3984D01*
X10124Y3996D01*
X10128Y4007D01*
X10133Y4018D01*
X10139Y4029D01*
X10147Y4039D01*
X10154Y4049D01*
X10155Y4050D01*
X10157Y4052D01*
X10159Y4054D01*
X10163Y4058D01*
X10167Y4062D01*
X10173Y4066D01*
X10179Y4071D01*
X10186Y4077D01*
X10194Y4082D01*
X10204Y4087D01*
X10214Y4092D01*
X10224Y4097D01*
X10236Y4102D01*
X10249Y4105D01*
X10262Y4108D01*
X10276Y4110D01*
X10285Y4009D01*
D02*
G37*
G36*
X10256Y3403D02*
X10261D01*
X10270Y3402D01*
X10282Y3400D01*
X10295Y3397D01*
X10308Y3393D01*
X10322Y3388D01*
X10323D01*
X10324Y3387D01*
X10325Y3386D01*
X10328Y3385D01*
X10331Y3384D01*
X10335Y3382D01*
X10343Y3378D01*
X10352Y3372D01*
X10362Y3366D01*
X10372Y3359D01*
X10381Y3351D01*
X10382Y3350D01*
X10385Y3347D01*
X10389Y3343D01*
X10393Y3337D01*
X10399Y3330D01*
X10404Y3322D01*
X10410Y3314D01*
X10414Y3304D01*
X10415Y3303D01*
X10415Y3301D01*
X10416Y3300D01*
X10418Y3294D01*
X10420Y3286D01*
X10423Y3276D01*
X10426Y3265D01*
X10429Y3251D01*
X10431Y3236D01*
Y3236D01*
Y3235D01*
X10432Y3234D01*
Y3231D01*
Y3229D01*
X10432Y3225D01*
Y3221D01*
X10433Y3215D01*
X10434Y3210D01*
Y3203D01*
X10434Y3195D01*
Y3187D01*
Y3178D01*
X10435Y3167D01*
Y3156D01*
Y3144D01*
Y3076D01*
X10630Y3035D01*
Y2930D01*
X10118Y3037D01*
Y3245D01*
Y3246D01*
Y3247D01*
Y3251D01*
Y3255D01*
X10118Y3259D01*
Y3265D01*
X10119Y3271D01*
X10119Y3277D01*
X10121Y3291D01*
X10123Y3306D01*
X10127Y3320D01*
X10131Y3333D01*
Y3333D01*
X10132Y3335D01*
X10133Y3336D01*
X10134Y3338D01*
X10137Y3344D01*
X10142Y3351D01*
X10148Y3360D01*
X10155Y3368D01*
X10164Y3376D01*
X10175Y3384D01*
X10175D01*
X10176Y3385D01*
X10178Y3386D01*
X10180Y3387D01*
X10183Y3388D01*
X10187Y3390D01*
X10195Y3394D01*
X10205Y3397D01*
X10218Y3401D01*
X10232Y3403D01*
X10246Y3403D01*
X10253D01*
X10256Y3403D01*
D02*
G37*
G36*
X10630Y3508D02*
Y3403D01*
X10118Y3510D01*
Y3615D01*
X10630Y3508D01*
D02*
G37*
G36*
X20923Y6549D02*
X20702Y6770D01*
X20923D01*
Y6549D01*
D02*
G37*
G36*
X3813Y6959D02*
X3592Y7180D01*
X3813D01*
Y6959D01*
D02*
G37*
G36*
X18980Y2442D02*
Y2663D01*
X19201D01*
X18980Y2442D01*
D02*
G37*
G36*
X10630Y5410D02*
Y5315D01*
X10205Y5403D01*
X10630Y5213D01*
Y5113D01*
X10202Y5095D01*
X10630Y5013D01*
Y4918D01*
X10118Y5025D01*
Y5175D01*
X10471Y5191D01*
X10118Y5352D01*
Y5503D01*
X10630Y5410D01*
D02*
G37*
G36*
X10198Y5948D02*
X10547Y5650D01*
Y5651D01*
Y5652D01*
Y5654D01*
Y5658D01*
Y5661D01*
X10546Y5666D01*
Y5674D01*
Y5684D01*
X10546Y5693D01*
Y5697D01*
Y5700D01*
Y5703D01*
Y5704D01*
Y5705D01*
Y5706D01*
Y5708D01*
Y5711D01*
Y5714D01*
Y5718D01*
Y5723D01*
Y5729D01*
Y5735D01*
X10545Y5742D01*
Y5749D01*
Y5758D01*
Y5767D01*
Y5776D01*
X10545Y5787D01*
Y5797D01*
Y5919D01*
X10630Y5901D01*
Y5504D01*
X10550Y5520D01*
X10203Y5815D01*
Y5577D01*
X10118Y5595D01*
Y5964D01*
X10198Y5948D01*
D02*
G37*
%LPC*%
G36*
X10255Y3298D02*
X10252D01*
X10249Y3297D01*
X10245Y3297D01*
X10240Y3296D01*
X10235Y3295D01*
X10230Y3292D01*
X10225Y3290D01*
X10225Y3289D01*
X10223Y3288D01*
X10221Y3286D01*
X10219Y3284D01*
X10215Y3280D01*
X10213Y3276D01*
X10210Y3272D01*
X10208Y3266D01*
Y3266D01*
X10207Y3263D01*
X10206Y3259D01*
X10205Y3256D01*
X10205Y3252D01*
X10204Y3249D01*
X10204Y3244D01*
X10203Y3238D01*
Y3232D01*
X10203Y3225D01*
X10202Y3218D01*
Y3210D01*
Y3200D01*
Y3125D01*
X10349Y3094D01*
Y3126D01*
Y3128D01*
Y3130D01*
Y3134D01*
Y3140D01*
X10349Y3146D01*
Y3154D01*
X10348Y3163D01*
Y3171D01*
X10347Y3190D01*
X10345Y3209D01*
X10344Y3217D01*
X10343Y3225D01*
X10341Y3232D01*
X10339Y3237D01*
Y3238D01*
X10339Y3239D01*
X10337Y3242D01*
X10335Y3247D01*
X10331Y3254D01*
X10326Y3261D01*
X10321Y3268D01*
X10314Y3275D01*
X10306Y3282D01*
X10305Y3282D01*
X10302Y3285D01*
X10297Y3287D01*
X10291Y3290D01*
X10283Y3293D01*
X10275Y3296D01*
X10265Y3297D01*
X10255Y3298D01*
D02*
G37*
%LPD*%
D10*
X-470Y5661D02*
G03*
X-572Y5563I-2J-100D01*
G01*
X-572Y3378D02*
G03*
X-470Y3261I110J-7D01*
G01*
X17849Y3721D02*
G03*
X17849Y3721I-39J0D01*
G01*
X19110Y4210D02*
G03*
X19110Y4210I-500J0D01*
G01*
X-553Y6035D02*
X-316Y5799D01*
X-470Y5661D02*
X-320D01*
X-316Y5799D02*
X80D01*
X-316Y5664D02*
Y5799D01*
X-572Y3378D02*
Y5563D01*
X-320Y5661D02*
X-316Y5664D01*
X980Y5799D02*
X1652D01*
Y5327D02*
Y5799D01*
X-41Y3122D02*
Y5799D01*
X1101Y5327D02*
X1652D01*
X1101Y3594D02*
Y5327D01*
X-470Y3261D02*
X-320D01*
X-316Y3257D01*
Y3122D02*
Y3257D01*
X-553Y2886D02*
X-316Y3122D01*
X80D01*
X1101Y3594D02*
X1652D01*
X980Y3122D02*
X1652D01*
Y3594D01*
X4000Y6234D02*
Y7966D01*
Y6234D02*
X5780D01*
X4000Y7966D02*
X5780D01*
Y6234D02*
Y7966D01*
X29640Y2912D02*
X30050D01*
Y6072D01*
X13080Y2800D02*
X13280D01*
Y2750D01*
X13080Y2550D01*
Y2500D01*
X13280D01*
X13380Y2700D02*
Y2550D01*
X13430Y2500D01*
X13480Y2550D01*
X13530Y2500D01*
X13580Y2550D01*
Y2700D01*
X13830Y2500D02*
X13730D01*
X13680Y2550D01*
Y2650D01*
X13730Y2700D01*
X13830D01*
X13880Y2650D01*
Y2600D01*
X13680D01*
X13980Y2500D02*
X14080D01*
X14030D01*
Y2700D01*
X13980D01*
X297Y7988D02*
X255Y8030D01*
X172D01*
X130Y7988D01*
Y7822D01*
X172Y7780D01*
X255D01*
X297Y7822D01*
Y7905D01*
X213D01*
X380Y7780D02*
Y8030D01*
X547Y7780D01*
Y8030D01*
X630D02*
Y7780D01*
X755D01*
X796Y7822D01*
Y7988D01*
X755Y8030D01*
X630D01*
X992Y8077D02*
X950Y8035D01*
Y7952D01*
X992Y7910D01*
X1158D01*
X1200Y7952D01*
Y8035D01*
X1158Y8077D01*
X1200Y8160D02*
Y8243D01*
Y8202D01*
X950D01*
X992Y8160D01*
X1200Y8493D02*
X950D01*
X1075Y8368D01*
Y8535D01*
X1967Y7927D02*
X1920Y7880D01*
Y7787D01*
X1967Y7740D01*
X2153D01*
X2200Y7787D01*
Y7880D01*
X2153Y7927D01*
X2200Y8020D02*
Y8113D01*
Y8067D01*
X1920D01*
X1967Y8020D01*
Y8253D02*
X1920Y8300D01*
Y8393D01*
X1967Y8440D01*
X2013D01*
X2060Y8393D01*
Y8346D01*
Y8393D01*
X2107Y8440D01*
X2153D01*
X2200Y8393D01*
Y8300D01*
X2153Y8253D01*
X2940Y8037D02*
Y7850D01*
X3080D01*
Y7943D01*
Y7850D01*
X3220D01*
X2940Y8317D02*
Y8130D01*
X3080D01*
X3033Y8223D01*
Y8270D01*
X3080Y8317D01*
X3173D01*
X3220Y8270D01*
Y8177D01*
X3173Y8130D01*
X3920Y8337D02*
Y8150D01*
X4060D01*
Y8243D01*
Y8150D01*
X4200D01*
Y8570D02*
X3920D01*
X4060Y8430D01*
Y8617D01*
X4930Y8367D02*
Y8200D01*
X5055D01*
Y8283D01*
Y8200D01*
X5180D01*
Y8450D02*
Y8533D01*
Y8492D01*
X4930D01*
X4972Y8450D01*
X9450Y7320D02*
X9730D01*
Y7460D01*
X9683Y7507D01*
X9637D01*
X9590Y7460D01*
Y7320D01*
Y7460D01*
X9543Y7507D01*
X9497D01*
X9450Y7460D01*
Y7320D01*
X9730Y7600D02*
Y7693D01*
Y7647D01*
X9450D01*
X9497Y7600D01*
Y7833D02*
X9450Y7880D01*
Y7973D01*
X9497Y8020D01*
X9543D01*
X9590Y7973D01*
Y7926D01*
Y7973D01*
X9637Y8020D01*
X9683D01*
X9730Y7973D01*
Y7880D01*
X9683Y7833D01*
X21930Y747D02*
Y580D01*
X22180D01*
Y747D01*
X22055Y580D02*
Y663D01*
X21930Y830D02*
Y997D01*
X21972D01*
X22138Y830D01*
X22180D01*
X20960Y767D02*
Y600D01*
X21210D01*
Y767D01*
X21085Y600D02*
Y683D01*
X20960Y1017D02*
X21002Y933D01*
X21085Y850D01*
X21168D01*
X21210Y892D01*
Y975D01*
X21168Y1017D01*
X21127D01*
X21085Y975D01*
Y850D01*
D37*
X15133Y5056D02*
G03*
X15133Y5056I-40J0D01*
G01*
X3991Y7490D02*
G03*
X3991Y7490I-50J0D01*
G01*
X18720Y2791D02*
G03*
X18720Y2791I-50J0D01*
G01*
X21101Y7080D02*
G03*
X21101Y7080I-50J0D01*
G01*
D40*
X15323Y2930D02*
G03*
X15323Y2930I-73J0D01*
G01*
X15722Y3130D02*
G03*
X15722Y3130I-482J0D01*
G01*
D52*
X11857Y3171D02*
G03*
X11857Y3171I-118J0D01*
G01*
D53*
X12724Y2709D02*
G03*
X12724Y2709I-49J0D01*
G01*
X20988Y6832D02*
G03*
X20988Y6832I-49J0D01*
G01*
D54*
X19780Y4570D02*
Y5030D01*
Y4570D02*
X20790D01*
X19780Y5030D02*
X20790D01*
Y4570D02*
Y5030D01*
X19780Y4120D02*
X20790D01*
X19780Y3660D02*
Y4120D01*
X20790Y3660D02*
Y4120D01*
X19780Y3660D02*
X20790D01*
X14490Y6301D02*
X14790D01*
X14490Y5159D02*
Y6301D01*
X14790Y5159D02*
Y6301D01*
X14490Y5159D02*
X14790D01*
X13790Y5060D02*
X14800D01*
X13790Y4600D02*
Y5060D01*
X14800Y4600D02*
Y5060D01*
X13790Y4600D02*
X14800D01*
X16300Y6030D02*
X17310D01*
Y6490D01*
X16300Y6030D02*
Y6490D01*
X17310D01*
X5970Y5630D02*
Y6090D01*
X4960D02*
X5970D01*
X4960Y5630D02*
X5970D01*
X4960D02*
Y6090D01*
X2750Y6780D02*
Y7180D01*
Y6780D02*
X3813Y6780D01*
X2750Y7180D02*
X3813Y7180D01*
Y6780D02*
Y7180D01*
X3870Y5760D02*
Y6220D01*
Y5760D02*
X4880D01*
X3870Y6220D02*
X4880D01*
Y5760D02*
Y6220D01*
X667Y7791D02*
X1691D01*
Y7909D01*
Y6491D02*
Y6609D01*
X667D02*
X1691D01*
X1651Y6491D02*
Y6609D01*
X1612Y6491D02*
Y6609D01*
Y6491D02*
X1691D01*
X1612Y7909D02*
X1691D01*
X1612Y7791D02*
Y7909D01*
X1651Y7791D02*
Y7909D01*
X5869Y6257D02*
Y7281D01*
X5751D02*
X5869D01*
X7051D02*
X7169D01*
X7051Y6257D02*
Y7281D01*
Y7241D02*
X7169D01*
X7051Y7202D02*
X7169D01*
Y7281D01*
X5751Y7202D02*
Y7281D01*
Y7202D02*
X5869D01*
X5751Y7241D02*
X5869D01*
X2160Y7670D02*
X2620D01*
X2160Y6660D02*
Y7670D01*
X2620Y6660D02*
Y7670D01*
X2160Y6660D02*
X2620D01*
X16840Y2640D02*
X17850D01*
X16840Y2180D02*
Y2640D01*
X17850Y2180D02*
Y2640D01*
X16840Y2180D02*
X17850D01*
X18980Y1600D02*
X19380D01*
X19380Y2663D02*
X19380Y1600D01*
X18980D02*
X18980Y2663D01*
X19380D01*
X19940Y7420D02*
Y7880D01*
Y7420D02*
X20950D01*
X19940Y7880D02*
X20950D01*
Y7420D02*
Y7880D01*
X19860Y6370D02*
Y6770D01*
Y6370D02*
X20923Y6370D01*
X19860Y6770D02*
X20923Y6770D01*
Y6370D02*
Y6770D01*
X2660Y5360D02*
X3060D01*
X2670Y6060D02*
X3050D01*
X1320Y1350D02*
Y2360D01*
Y1350D02*
X1780D01*
X1320Y2360D02*
X1780D01*
Y1350D02*
Y2360D01*
X2140Y2245D02*
Y2645D01*
Y2245D02*
X2840D01*
X2140Y3345D02*
Y3590D01*
X2290Y3740D01*
X2840Y2245D02*
Y2645D01*
X2290Y3740D02*
X2690D01*
X2840Y3345D02*
Y3590D01*
X2250Y3700D02*
X2730D01*
X2690Y3740D02*
X2840Y3590D01*
X17450Y3760D02*
Y4220D01*
X16440D02*
X17450D01*
X16440Y3760D02*
X17450D01*
X16440D02*
Y4220D01*
X15380Y3760D02*
Y4220D01*
Y3760D02*
X16390D01*
X15380Y4220D02*
X16390D01*
Y3760D02*
Y4220D01*
X17450Y4640D02*
Y5100D01*
X16440D02*
X17450D01*
X16440Y4640D02*
X17450D01*
X16440D02*
Y5100D01*
X15390Y4640D02*
Y5100D01*
Y4640D02*
X16400D01*
X15390Y5100D02*
X16400D01*
Y4640D02*
Y5100D01*
X15280Y4020D02*
Y4480D01*
X14270D02*
X15280D01*
X14270Y4020D02*
X15280D01*
X14270D02*
Y4480D01*
X4125Y3090D02*
X4525D01*
Y3790D01*
X3180Y3090D02*
X3425D01*
X3030Y3240D02*
X3180Y3090D01*
X4125Y3790D02*
X4525D01*
X3030Y3240D02*
Y3640D01*
X3180Y3790D02*
X3425D01*
X3070Y3200D02*
Y3680D01*
X3030Y3640D02*
X3180Y3790D01*
X4145Y2150D02*
X4545D01*
Y2850D01*
X3200Y2150D02*
X3445D01*
X3050Y2300D02*
X3200Y2150D01*
X4145Y2850D02*
X4545D01*
X3050Y2300D02*
Y2700D01*
X3200Y2850D02*
X3445D01*
X3090Y2260D02*
Y2740D01*
X3050Y2700D02*
X3200Y2850D01*
X4580Y3220D02*
X5590D01*
Y3680D01*
X4580Y3220D02*
Y3680D01*
X5590D01*
X4600Y2270D02*
X5610D01*
Y2730D01*
X4600Y2270D02*
Y2730D01*
X5610D01*
X7350Y1970D02*
Y2430D01*
X6340D02*
X7350D01*
X6340Y1970D02*
X7350D01*
X6340D02*
Y2430D01*
X7650Y3300D02*
Y3760D01*
X6640D02*
X7650D01*
X6640Y3300D02*
X7650D01*
X6640D02*
Y3760D01*
X7180Y6030D02*
X7640D01*
Y7040D01*
X7180Y6030D02*
Y7040D01*
X7640D01*
X3920Y5160D02*
Y5620D01*
Y5160D02*
X4930D01*
X3920Y5620D02*
X4930D01*
Y5160D02*
Y5620D01*
X19790Y5550D02*
X20800D01*
X19790Y5090D02*
Y5550D01*
X20800Y5090D02*
Y5550D01*
X19790Y5090D02*
X20800D01*
X17910Y6380D02*
X19310D01*
X17910Y5680D02*
X19310Y5680D01*
Y6380D01*
X17910Y5680D02*
X17910Y6380D01*
X20040Y1770D02*
Y3170D01*
X20740D02*
X20740Y1770D01*
X20040Y3170D02*
X20740D01*
X20040Y1770D02*
X20740Y1770D01*
D55*
X8767Y6144D02*
X12133D01*
X8767Y2778D02*
X12133D01*
X8767D02*
Y6144D01*
X12133Y2778D02*
Y6144D01*
X14170Y6560D02*
X19170D01*
Y7560D01*
X14170Y6560D02*
Y7560D01*
X19170D01*
X23185Y2912D02*
X30040D01*
X21275Y1102D02*
X22310D01*
X23170Y1080D02*
Y7860D01*
X21275Y1102D02*
Y2030D01*
X23185Y6072D02*
X30050D01*
X21315Y7840D02*
X22310D01*
X21315Y6899D02*
Y7840D01*
D56*
X19610Y3210D02*
Y5210D01*
X17610D02*
X19610D01*
X17610Y3210D02*
Y5210D01*
D57*
Y3210D02*
X19610D01*
D58*
X13020Y2050D02*
X13113D01*
X13067D01*
Y2330D01*
X13020Y2283D01*
X13253Y2097D02*
X13300Y2050D01*
X13393D01*
X13440Y2097D01*
Y2283D01*
X13393Y2330D01*
X13300D01*
X13253Y2283D01*
Y2237D01*
X13300Y2190D01*
X13440D01*
X13533Y2050D02*
X13626D01*
X13580D01*
Y2330D01*
X13533Y2283D01*
X13953Y2330D02*
X13766D01*
Y2190D01*
X13860Y2237D01*
X13906D01*
X13953Y2190D01*
Y2097D01*
X13906Y2050D01*
X13813D01*
X13766Y2097D01*
X14326Y2330D02*
Y2143D01*
X14420Y2050D01*
X14513Y2143D01*
Y2330D01*
X14606Y2050D02*
X14699D01*
X14653D01*
Y2330D01*
X14606Y2283D01*
X14839Y2050D02*
Y2097D01*
X14886D01*
Y2050D01*
X14839D01*
X15073Y2283D02*
X15119Y2330D01*
X15213D01*
X15259Y2283D01*
Y2097D01*
X15213Y2050D01*
X15119D01*
X15073Y2097D01*
Y2283D01*
X15819D02*
X15772Y2330D01*
X15679D01*
X15632Y2283D01*
Y2097D01*
X15679Y2050D01*
X15772D01*
X15819Y2097D01*
X15912Y2050D02*
Y2237D01*
X16006Y2330D01*
X16099Y2237D01*
Y2050D01*
Y2190D01*
X15912D01*
X16192Y2050D02*
Y2330D01*
X16286Y2237D01*
X16379Y2330D01*
Y2050D01*
X14350Y2730D02*
X14150D01*
X14350Y2930D01*
Y2980D01*
X14300Y3030D01*
X14200D01*
X14150Y2980D01*
X11860Y1820D02*
Y1670D01*
X11910Y1620D01*
X11960Y1670D01*
X12010Y1620D01*
X12060Y1670D01*
Y1820D01*
X12160D02*
Y1670D01*
X12210Y1620D01*
X12260Y1670D01*
X12310Y1620D01*
X12360Y1670D01*
Y1820D01*
X12460D02*
Y1670D01*
X12510Y1620D01*
X12560Y1670D01*
X12610Y1620D01*
X12660Y1670D01*
Y1820D01*
X12760Y1620D02*
Y1670D01*
X12810D01*
Y1620D01*
X12760D01*
X13210Y1870D02*
X13160Y1920D01*
X13060D01*
X13010Y1870D01*
Y1670D01*
X13060Y1620D01*
X13160D01*
X13210Y1670D01*
X13310Y1620D02*
X13410D01*
X13360D01*
Y1820D01*
X13310D01*
X13559D02*
Y1620D01*
Y1720D01*
X13609Y1770D01*
X13659Y1820D01*
X13709D01*
X14059D02*
X13909D01*
X13859Y1770D01*
Y1670D01*
X13909Y1620D01*
X14059D01*
X14159Y1820D02*
Y1670D01*
X14209Y1620D01*
X14359D01*
Y1820D01*
X14459Y1620D02*
X14559D01*
X14509D01*
Y1820D01*
X14459D01*
X14759Y1870D02*
Y1820D01*
X14709D01*
X14809D01*
X14759D01*
Y1670D01*
X14809Y1620D01*
X14959Y1920D02*
Y1720D01*
X15059Y1620D01*
X15159Y1720D01*
Y1920D01*
X15309Y1820D02*
X15409D01*
X15459Y1770D01*
Y1620D01*
X15309D01*
X15259Y1670D01*
X15309Y1720D01*
X15459D01*
X15559Y1620D02*
X15659D01*
X15609D01*
Y1920D01*
X15559D01*
X15809Y1620D02*
X15909D01*
X15859D01*
Y1920D01*
X15809D01*
X16209Y1620D02*
X16109D01*
X16059Y1670D01*
Y1770D01*
X16109Y1820D01*
X16209D01*
X16259Y1770D01*
Y1720D01*
X16059D01*
X16359Y1820D02*
Y1670D01*
X16409Y1620D01*
X16558D01*
Y1570D01*
X16509Y1520D01*
X16459D01*
X16558Y1620D02*
Y1820D01*
X16658Y1620D02*
Y1670D01*
X16708D01*
Y1620D01*
X16658D01*
X17108Y1820D02*
X16958D01*
X16908Y1770D01*
Y1670D01*
X16958Y1620D01*
X17108D01*
X17258D02*
X17358D01*
X17408Y1670D01*
Y1770D01*
X17358Y1820D01*
X17258D01*
X17208Y1770D01*
Y1670D01*
X17258Y1620D01*
X17508D02*
Y1820D01*
X17558D01*
X17608Y1770D01*
Y1620D01*
Y1770D01*
X17658Y1820D01*
X17708Y1770D01*
Y1620D01*
X18310Y5330D02*
Y5580D01*
X18435D01*
X18477Y5538D01*
Y5455D01*
X18435Y5413D01*
X18310D01*
X18393D02*
X18477Y5330D01*
X18727Y5538D02*
X18685Y5580D01*
X18602D01*
X18560Y5538D01*
Y5497D01*
X18602Y5455D01*
X18685D01*
X18727Y5413D01*
Y5372D01*
X18685Y5330D01*
X18602D01*
X18560Y5372D01*
X18810Y5580D02*
X18976D01*
X18893D01*
Y5330D01*
X19382Y6770D02*
X19340Y6812D01*
Y6895D01*
X19298Y6937D01*
X19590Y7020D02*
X19340D01*
X19423Y7103D01*
X19340Y7187D01*
X19590D01*
X14080Y6710D02*
X13830D01*
Y6835D01*
X13872Y6877D01*
X13955D01*
X13997Y6835D01*
Y6710D01*
X13872Y7127D02*
X13830Y7085D01*
Y7002D01*
X13872Y6960D01*
X14038D01*
X14080Y7002D01*
Y7085D01*
X14038Y7127D01*
X13955D01*
Y7043D01*
X13872Y7376D02*
X13830Y7335D01*
Y7251D01*
X13872Y7210D01*
X14038D01*
X14080Y7251D01*
Y7335D01*
X14038Y7376D01*
X3677Y2038D02*
X3635Y2080D01*
X3552D01*
X3510Y2038D01*
Y1872D01*
X3552Y1830D01*
X3635D01*
X3677Y1872D01*
X3760Y1830D02*
X3843D01*
X3802D01*
Y2080D01*
X3760Y2038D01*
X4093Y1830D02*
Y2080D01*
X3968Y1955D01*
X4135D01*
X3687Y4118D02*
X3645Y4160D01*
X3562D01*
X3520Y4118D01*
Y3952D01*
X3562Y3910D01*
X3645D01*
X3687Y3952D01*
X3770Y3910D02*
X3853D01*
X3812D01*
Y4160D01*
X3770Y4118D01*
X3978D02*
X4020Y4160D01*
X4103D01*
X4145Y4118D01*
Y4077D01*
X4103Y4035D01*
X4061D01*
X4103D01*
X4145Y3993D01*
Y3952D01*
X4103Y3910D01*
X4020D01*
X3978Y3952D01*
X19930Y7990D02*
X20210D01*
Y8130D01*
X20163Y8177D01*
X20117D01*
X20070Y8130D01*
Y7990D01*
Y8130D01*
X20023Y8177D01*
X19977D01*
X19930Y8130D01*
Y7990D01*
X20210Y8457D02*
Y8270D01*
X20023Y8457D01*
X19977D01*
X19930Y8410D01*
Y8317D01*
X19977Y8270D01*
D59*
X6470Y8040D02*
X6270D01*
Y7890D01*
X6370D01*
X6270D01*
Y7740D01*
X6570Y7990D02*
X6620Y8040D01*
X6720D01*
X6770Y7990D01*
Y7790D01*
X6720Y7740D01*
X6620D01*
X6570Y7790D01*
Y7990D01*
X7400Y7300D02*
X7700D01*
Y7450D01*
X7650Y7500D01*
X7600D01*
X7550Y7450D01*
Y7300D01*
Y7450D01*
X7500Y7500D01*
X7450D01*
X7400Y7450D01*
Y7300D01*
X7700Y7600D02*
Y7700D01*
Y7650D01*
X7400D01*
X7450Y7600D01*
X7400Y8050D02*
Y7850D01*
X7550D01*
X7500Y7950D01*
Y8000D01*
X7550Y8050D01*
X7650D01*
X7700Y8000D01*
Y7900D01*
X7650Y7850D01*
X8440Y7320D02*
X8740D01*
Y7470D01*
X8690Y7520D01*
X8640D01*
X8590Y7470D01*
Y7320D01*
Y7470D01*
X8540Y7520D01*
X8490D01*
X8440Y7470D01*
Y7320D01*
X8740Y7620D02*
Y7720D01*
Y7670D01*
X8440D01*
X8490Y7620D01*
X8740Y8020D02*
X8440D01*
X8590Y7870D01*
Y8070D01*
X10400Y7280D02*
X10700D01*
Y7430D01*
X10650Y7480D01*
X10600D01*
X10550Y7430D01*
Y7280D01*
Y7430D01*
X10500Y7480D01*
X10450D01*
X10400Y7430D01*
Y7280D01*
X10700Y7580D02*
Y7680D01*
Y7630D01*
X10400D01*
X10450Y7580D01*
X10700Y8030D02*
Y7830D01*
X10500Y8030D01*
X10450D01*
X10400Y7980D01*
Y7880D01*
X10450Y7830D01*
X11370Y7320D02*
X11670D01*
Y7470D01*
X11620Y7520D01*
X11570D01*
X11520Y7470D01*
Y7320D01*
Y7470D01*
X11470Y7520D01*
X11420D01*
X11370Y7470D01*
Y7320D01*
X11670Y7620D02*
Y7720D01*
Y7670D01*
X11370D01*
X11420Y7620D01*
X11670Y7870D02*
Y7970D01*
Y7920D01*
X11370D01*
X11420Y7870D01*
X12390Y7270D02*
X12690D01*
Y7420D01*
X12640Y7470D01*
X12590D01*
X12540Y7420D01*
Y7270D01*
Y7420D01*
X12490Y7470D01*
X12440D01*
X12390Y7420D01*
Y7270D01*
X12690Y7570D02*
Y7670D01*
Y7620D01*
X12390D01*
X12440Y7570D01*
Y7820D02*
X12390Y7870D01*
Y7970D01*
X12440Y8020D01*
X12640D01*
X12690Y7970D01*
Y7870D01*
X12640Y7820D01*
X12440D01*
X13690Y7240D02*
X13390D01*
Y7390D01*
X13440Y7440D01*
X13540D01*
X13590Y7390D01*
Y7240D01*
Y7340D02*
X13690Y7440D01*
X13390Y7540D02*
X13690D01*
Y7690D01*
X13640Y7740D01*
X13590D01*
X13540Y7690D01*
Y7540D01*
Y7690D01*
X13490Y7740D01*
X13440D01*
X13390Y7690D01*
Y7540D01*
X13640Y7840D02*
X13690Y7890D01*
Y7990D01*
X13640Y8040D01*
X13440D01*
X13390Y7990D01*
Y7890D01*
X13440Y7840D01*
X13490D01*
X13540Y7890D01*
Y8040D01*
X13950Y7760D02*
X14250D01*
Y7910D01*
X14200Y7960D01*
X14150D01*
X14100Y7910D01*
Y7760D01*
Y7910D01*
X14050Y7960D01*
X14000D01*
X13950Y7910D01*
Y7760D01*
X14000Y8060D02*
X13950Y8110D01*
Y8210D01*
X14000Y8260D01*
X14050D01*
X14100Y8210D01*
X14150Y8260D01*
X14200D01*
X14250Y8210D01*
Y8110D01*
X14200Y8060D01*
X14150D01*
X14100Y8110D01*
X14050Y8060D01*
X14000D01*
X14100Y8110D02*
Y8210D01*
X15030Y7770D02*
X15330D01*
Y7920D01*
X15280Y7970D01*
X15230D01*
X15180Y7920D01*
Y7770D01*
Y7920D01*
X15130Y7970D01*
X15080D01*
X15030Y7920D01*
Y7770D01*
Y8070D02*
Y8270D01*
X15080D01*
X15280Y8070D01*
X15330D01*
X15930Y7780D02*
X16230D01*
Y7930D01*
X16180Y7980D01*
X16130D01*
X16080Y7930D01*
Y7780D01*
Y7930D01*
X16030Y7980D01*
X15980D01*
X15930Y7930D01*
Y7780D01*
Y8280D02*
X15980Y8180D01*
X16080Y8080D01*
X16180D01*
X16230Y8130D01*
Y8230D01*
X16180Y8280D01*
X16130D01*
X16080Y8230D01*
Y8080D01*
X16930Y7770D02*
X17230D01*
Y7920D01*
X17180Y7970D01*
X17130D01*
X17080Y7920D01*
Y7770D01*
Y7920D01*
X17030Y7970D01*
X16980D01*
X16930Y7920D01*
Y7770D01*
Y8270D02*
Y8070D01*
X17080D01*
X17030Y8170D01*
Y8220D01*
X17080Y8270D01*
X17180D01*
X17230Y8220D01*
Y8120D01*
X17180Y8070D01*
X17910Y7740D02*
X18210D01*
Y7890D01*
X18160Y7940D01*
X18110D01*
X18060Y7890D01*
Y7740D01*
Y7890D01*
X18010Y7940D01*
X17960D01*
X17910Y7890D01*
Y7740D01*
X18210Y8190D02*
X17910D01*
X18060Y8040D01*
Y8240D01*
X19380Y7570D02*
X19680D01*
Y7720D01*
X19630Y7770D01*
X19580D01*
X19530Y7720D01*
Y7570D01*
Y7720D01*
X19480Y7770D01*
X19430D01*
X19380Y7720D01*
Y7570D01*
X19430Y7870D02*
X19380Y7920D01*
Y8020D01*
X19430Y8070D01*
X19480D01*
X19530Y8020D01*
Y7970D01*
Y8020D01*
X19580Y8070D01*
X19630D01*
X19680Y8020D01*
Y7920D01*
X19630Y7870D01*
X20910Y8020D02*
X21210D01*
Y8170D01*
X21160Y8220D01*
X21110D01*
X21060Y8170D01*
Y8020D01*
Y8170D01*
X21010Y8220D01*
X20960D01*
X20910Y8170D01*
Y8020D01*
X21210Y8320D02*
Y8420D01*
Y8370D01*
X20910D01*
X20960Y8320D01*
X21930Y7960D02*
X22230D01*
Y8110D01*
X22180Y8160D01*
X22130D01*
X22080Y8110D01*
Y7960D01*
Y8110D01*
X22030Y8160D01*
X21980D01*
X21930Y8110D01*
Y7960D01*
X21980Y8260D02*
X21930Y8310D01*
Y8410D01*
X21980Y8460D01*
X22180D01*
X22230Y8410D01*
Y8310D01*
X22180Y8260D01*
X21980D01*
X23490Y7220D02*
X23440Y7270D01*
Y7370D01*
X23490Y7420D01*
X23540D01*
X23590Y7370D01*
Y7320D01*
Y7370D01*
X23640Y7420D01*
X23690D01*
X23740Y7370D01*
Y7270D01*
X23690Y7220D01*
X23440Y7520D02*
X23640D01*
X23740Y7620D01*
X23640Y7720D01*
X23440D01*
X23490Y7820D02*
X23440Y7870D01*
Y7970D01*
X23490Y8020D01*
X23540D01*
X23590Y7970D01*
Y7920D01*
Y7970D01*
X23640Y8020D01*
X23690D01*
X23740Y7970D01*
Y7870D01*
X23690Y7820D01*
X23460Y1060D02*
X23410Y1010D01*
Y910D01*
X23460Y860D01*
X23660D01*
X23710Y910D01*
Y1010D01*
X23660Y1060D01*
X23560D01*
Y960D01*
X23710Y1160D02*
X23410D01*
X23710Y1360D01*
X23410D01*
Y1460D02*
X23710D01*
Y1610D01*
X23660Y1660D01*
X23460D01*
X23410Y1610D01*
Y1460D01*
X20400Y1130D02*
Y930D01*
X20700D01*
Y1130D01*
X20550Y930D02*
Y1030D01*
X20400Y1430D02*
Y1230D01*
X20550D01*
X20500Y1330D01*
Y1380D01*
X20550Y1430D01*
X20650D01*
X20700Y1380D01*
Y1280D01*
X20650Y1230D01*
X19400Y1130D02*
Y930D01*
X19700D01*
Y1130D01*
X19550Y930D02*
Y1030D01*
X19700Y1380D02*
X19400D01*
X19550Y1230D01*
Y1430D01*
X18430Y1130D02*
Y930D01*
X18730D01*
Y1130D01*
X18580Y930D02*
Y1030D01*
X18480Y1230D02*
X18430Y1280D01*
Y1380D01*
X18480Y1430D01*
X18530D01*
X18580Y1380D01*
Y1330D01*
Y1380D01*
X18630Y1430D01*
X18680D01*
X18730Y1380D01*
Y1280D01*
X18680Y1230D01*
X17420Y1130D02*
Y930D01*
X17720D01*
Y1130D01*
X17570Y930D02*
Y1030D01*
X17720Y1430D02*
Y1230D01*
X17520Y1430D01*
X17470D01*
X17420Y1380D01*
Y1280D01*
X17470Y1230D01*
X16420Y1130D02*
Y930D01*
X16720D01*
Y1130D01*
X16570Y930D02*
Y1030D01*
X16720Y1230D02*
Y1330D01*
Y1280D01*
X16420D01*
X16470Y1230D01*
X15420Y1130D02*
Y930D01*
X15720D01*
Y1130D01*
X15570Y930D02*
Y1030D01*
X15470Y1230D02*
X15420Y1280D01*
Y1380D01*
X15470Y1430D01*
X15670D01*
X15720Y1380D01*
Y1280D01*
X15670Y1230D01*
X15470D01*
X14480Y1130D02*
X14430Y1080D01*
Y980D01*
X14480Y930D01*
X14680D01*
X14730Y980D01*
Y1080D01*
X14680Y1130D01*
X14580D01*
Y1030D01*
X14680Y1230D02*
X14730Y1280D01*
Y1380D01*
X14680Y1430D01*
X14480D01*
X14430Y1380D01*
Y1280D01*
X14480Y1230D01*
X14530D01*
X14580Y1280D01*
Y1430D01*
X13480Y1130D02*
X13430Y1080D01*
Y980D01*
X13480Y930D01*
X13680D01*
X13730Y980D01*
Y1080D01*
X13680Y1130D01*
X13580D01*
Y1030D01*
X13480Y1230D02*
X13430Y1280D01*
Y1380D01*
X13480Y1430D01*
X13530D01*
X13580Y1380D01*
X13630Y1430D01*
X13680D01*
X13730Y1380D01*
Y1280D01*
X13680Y1230D01*
X13630D01*
X13580Y1280D01*
X13530Y1230D01*
X13480D01*
X13580Y1280D02*
Y1380D01*
X12460Y1130D02*
X12410Y1080D01*
Y980D01*
X12460Y930D01*
X12660D01*
X12710Y980D01*
Y1080D01*
X12660Y1130D01*
X12560D01*
Y1030D01*
X12410Y1230D02*
Y1430D01*
X12460D01*
X12660Y1230D01*
X12710D01*
X11460Y1130D02*
X11410Y1080D01*
Y980D01*
X11460Y930D01*
X11660D01*
X11710Y980D01*
Y1080D01*
X11660Y1130D01*
X11560D01*
Y1030D01*
X11410Y1430D02*
X11460Y1330D01*
X11560Y1230D01*
X11660D01*
X11710Y1280D01*
Y1380D01*
X11660Y1430D01*
X11610D01*
X11560Y1380D01*
Y1230D01*
X10430Y930D02*
X10730D01*
Y1080D01*
X10680Y1130D01*
X10480D01*
X10430Y1080D01*
Y930D01*
X10730Y1230D02*
Y1330D01*
Y1280D01*
X10430D01*
X10480Y1230D01*
X10730Y1480D02*
Y1580D01*
Y1530D01*
X10430D01*
X10480Y1480D01*
X9420Y930D02*
X9720D01*
Y1080D01*
X9670Y1130D01*
X9470D01*
X9420Y1080D01*
Y930D01*
X9720Y1230D02*
Y1330D01*
Y1280D01*
X9420D01*
X9470Y1230D01*
Y1480D02*
X9420Y1530D01*
Y1630D01*
X9470Y1680D01*
X9670D01*
X9720Y1630D01*
Y1530D01*
X9670Y1480D01*
X9470D01*
X8410Y930D02*
X8710D01*
Y1080D01*
X8660Y1130D01*
X8460D01*
X8410Y1080D01*
Y930D01*
X8660Y1230D02*
X8710Y1280D01*
Y1380D01*
X8660Y1430D01*
X8460D01*
X8410Y1380D01*
Y1280D01*
X8460Y1230D01*
X8510D01*
X8560Y1280D01*
Y1430D01*
X7420Y930D02*
X7720D01*
Y1080D01*
X7670Y1130D01*
X7470D01*
X7420Y1080D01*
Y930D01*
Y1430D02*
Y1230D01*
X7570D01*
X7520Y1330D01*
Y1380D01*
X7570Y1430D01*
X7670D01*
X7720Y1380D01*
Y1280D01*
X7670Y1230D01*
X6440Y930D02*
X6740D01*
Y1080D01*
X6690Y1130D01*
X6490D01*
X6440Y1080D01*
Y930D01*
X6740Y1380D02*
X6440D01*
X6590Y1230D01*
Y1430D01*
X5440Y930D02*
X5740D01*
Y1080D01*
X5690Y1130D01*
X5490D01*
X5440Y1080D01*
Y930D01*
X5490Y1230D02*
X5440Y1280D01*
Y1380D01*
X5490Y1430D01*
X5540D01*
X5590Y1380D01*
Y1330D01*
Y1380D01*
X5640Y1430D01*
X5690D01*
X5740Y1380D01*
Y1280D01*
X5690Y1230D01*
X4440Y930D02*
X4740D01*
Y1080D01*
X4690Y1130D01*
X4490D01*
X4440Y1080D01*
Y930D01*
X4740Y1430D02*
Y1230D01*
X4540Y1430D01*
X4490D01*
X4440Y1380D01*
Y1280D01*
X4490Y1230D01*
X3440Y930D02*
X3740D01*
Y1080D01*
X3690Y1130D01*
X3490D01*
X3440Y1080D01*
Y930D01*
X3740Y1230D02*
Y1330D01*
Y1280D01*
X3440D01*
X3490Y1230D01*
X2410Y930D02*
X2710D01*
Y1080D01*
X2660Y1130D01*
X2460D01*
X2410Y1080D01*
Y930D01*
X2460Y1230D02*
X2410Y1280D01*
Y1380D01*
X2460Y1430D01*
X2660D01*
X2710Y1380D01*
Y1280D01*
X2660Y1230D01*
X2460D01*
X1220Y1180D02*
X1270Y1230D01*
X1370D01*
X1420Y1180D01*
Y1130D01*
X1370Y1080D01*
X1320D01*
X1370D01*
X1420Y1030D01*
Y980D01*
X1370Y930D01*
X1270D01*
X1220Y980D01*
X1520Y1230D02*
Y1030D01*
X1620Y930D01*
X1720Y1030D01*
Y1230D01*
X1820Y1180D02*
X1870Y1230D01*
X1970D01*
X2020Y1180D01*
Y1130D01*
X1970Y1080D01*
X1920D01*
X1970D01*
X2020Y1030D01*
Y980D01*
X1970Y930D01*
X1870D01*
X1820Y980D01*
X580Y920D02*
Y1120D01*
X480Y1020D02*
X680D01*
X430Y1420D02*
Y1220D01*
X580D01*
X530Y1320D01*
Y1370D01*
X580Y1420D01*
X680D01*
X730Y1370D01*
Y1270D01*
X680Y1220D01*
X430Y1520D02*
X630D01*
X730Y1620D01*
X630Y1720D01*
X430D01*
M02*
