G04 Layer_Physical_Order=1*
G04 Layer_Color=255*
%FSLAX24Y24*%
%MOIN*%
G70*
G01*
G75*
%ADD10C,0.0080*%
%ADD11O,0.0200X0.0150*%
%ADD12R,0.0300X0.0300*%
G04:AMPARAMS|DCode=13|XSize=31.5mil|YSize=59.1mil|CornerRadius=3.9mil|HoleSize=0mil|Usage=FLASHONLY|Rotation=90.000|XOffset=0mil|YOffset=0mil|HoleType=Round|Shape=RoundedRectangle|*
%AMROUNDEDRECTD13*
21,1,0.0315,0.0512,0,0,90.0*
21,1,0.0236,0.0591,0,0,90.0*
1,1,0.0079,0.0256,0.0118*
1,1,0.0079,0.0256,-0.0118*
1,1,0.0079,-0.0256,-0.0118*
1,1,0.0079,-0.0256,0.0118*
%
%ADD13ROUNDEDRECTD13*%
G04:AMPARAMS|DCode=14|XSize=31.5mil|YSize=55.1mil|CornerRadius=3.9mil|HoleSize=0mil|Usage=FLASHONLY|Rotation=90.000|XOffset=0mil|YOffset=0mil|HoleType=Round|Shape=RoundedRectangle|*
%AMROUNDEDRECTD14*
21,1,0.0315,0.0472,0,0,90.0*
21,1,0.0236,0.0551,0,0,90.0*
1,1,0.0079,0.0236,0.0118*
1,1,0.0079,0.0236,-0.0118*
1,1,0.0079,-0.0236,-0.0118*
1,1,0.0079,-0.0236,0.0118*
%
%ADD14ROUNDEDRECTD14*%
%ADD15R,0.0100X0.0100*%
%ADD16O,0.0130X0.0768*%
%ADD17O,0.0768X0.0130*%
%ADD18R,0.0551X0.0630*%
%ADD19R,0.0748X0.0748*%
%ADD20R,0.0650X0.0157*%
G04:AMPARAMS|DCode=21|XSize=23.6mil|YSize=47.2mil|CornerRadius=3mil|HoleSize=0mil|Usage=FLASHONLY|Rotation=180.000|XOffset=0mil|YOffset=0mil|HoleType=Round|Shape=RoundedRectangle|*
%AMROUNDEDRECTD21*
21,1,0.0236,0.0413,0,0,180.0*
21,1,0.0177,0.0472,0,0,180.0*
1,1,0.0059,-0.0089,0.0207*
1,1,0.0059,0.0089,0.0207*
1,1,0.0059,0.0089,-0.0207*
1,1,0.0059,-0.0089,-0.0207*
%
%ADD21ROUNDEDRECTD21*%
G04:AMPARAMS|DCode=22|XSize=90.6mil|YSize=70.9mil|CornerRadius=8.9mil|HoleSize=0mil|Usage=FLASHONLY|Rotation=270.000|XOffset=0mil|YOffset=0mil|HoleType=Round|Shape=RoundedRectangle|*
%AMROUNDEDRECTD22*
21,1,0.0906,0.0532,0,0,270.0*
21,1,0.0728,0.0709,0,0,270.0*
1,1,0.0177,-0.0266,-0.0364*
1,1,0.0177,-0.0266,0.0364*
1,1,0.0177,0.0266,0.0364*
1,1,0.0177,0.0266,-0.0364*
%
%ADD22ROUNDEDRECTD22*%
G04:AMPARAMS|DCode=23|XSize=90.6mil|YSize=70.9mil|CornerRadius=8.9mil|HoleSize=0mil|Usage=FLASHONLY|Rotation=0.000|XOffset=0mil|YOffset=0mil|HoleType=Round|Shape=RoundedRectangle|*
%AMROUNDEDRECTD23*
21,1,0.0906,0.0532,0,0,0.0*
21,1,0.0728,0.0709,0,0,0.0*
1,1,0.0177,0.0364,-0.0266*
1,1,0.0177,-0.0364,-0.0266*
1,1,0.0177,-0.0364,0.0266*
1,1,0.0177,0.0364,0.0266*
%
%ADD23ROUNDEDRECTD23*%
%ADD24R,0.0300X0.0300*%
G04:AMPARAMS|DCode=25|XSize=23.6mil|YSize=47.2mil|CornerRadius=3mil|HoleSize=0mil|Usage=FLASHONLY|Rotation=270.000|XOffset=0mil|YOffset=0mil|HoleType=Round|Shape=RoundedRectangle|*
%AMROUNDEDRECTD25*
21,1,0.0236,0.0413,0,0,270.0*
21,1,0.0177,0.0472,0,0,270.0*
1,1,0.0059,-0.0207,-0.0089*
1,1,0.0059,-0.0207,0.0089*
1,1,0.0059,0.0207,0.0089*
1,1,0.0059,0.0207,-0.0089*
%
%ADD25ROUNDEDRECTD25*%
G04:AMPARAMS|DCode=26|XSize=47.2mil|YSize=145.7mil|CornerRadius=11.8mil|HoleSize=0mil|Usage=FLASHONLY|Rotation=0.000|XOffset=0mil|YOffset=0mil|HoleType=Round|Shape=RoundedRectangle|*
%AMROUNDEDRECTD26*
21,1,0.0472,0.1220,0,0,0.0*
21,1,0.0236,0.1457,0,0,0.0*
1,1,0.0236,0.0118,-0.0610*
1,1,0.0236,-0.0118,-0.0610*
1,1,0.0236,-0.0118,0.0610*
1,1,0.0236,0.0118,0.0610*
%
%ADD26ROUNDEDRECTD26*%
G04:AMPARAMS|DCode=27|XSize=74.8mil|YSize=51.2mil|CornerRadius=6.4mil|HoleSize=0mil|Usage=FLASHONLY|Rotation=90.000|XOffset=0mil|YOffset=0mil|HoleType=Round|Shape=RoundedRectangle|*
%AMROUNDEDRECTD27*
21,1,0.0748,0.0384,0,0,90.0*
21,1,0.0620,0.0512,0,0,90.0*
1,1,0.0128,0.0192,0.0310*
1,1,0.0128,0.0192,-0.0310*
1,1,0.0128,-0.0192,-0.0310*
1,1,0.0128,-0.0192,0.0310*
%
%ADD27ROUNDEDRECTD27*%
G04:AMPARAMS|DCode=28|XSize=50mil|YSize=50mil|CornerRadius=6.3mil|HoleSize=0mil|Usage=FLASHONLY|Rotation=90.000|XOffset=0mil|YOffset=0mil|HoleType=Round|Shape=RoundedRectangle|*
%AMROUNDEDRECTD28*
21,1,0.0500,0.0375,0,0,90.0*
21,1,0.0375,0.0500,0,0,90.0*
1,1,0.0125,0.0188,0.0188*
1,1,0.0125,0.0188,-0.0188*
1,1,0.0125,-0.0188,-0.0188*
1,1,0.0125,-0.0188,0.0188*
%
%ADD28ROUNDEDRECTD28*%
G04:AMPARAMS|DCode=29|XSize=50mil|YSize=50mil|CornerRadius=6.3mil|HoleSize=0mil|Usage=FLASHONLY|Rotation=180.000|XOffset=0mil|YOffset=0mil|HoleType=Round|Shape=RoundedRectangle|*
%AMROUNDEDRECTD29*
21,1,0.0500,0.0375,0,0,180.0*
21,1,0.0375,0.0500,0,0,180.0*
1,1,0.0125,-0.0188,0.0188*
1,1,0.0125,0.0188,0.0188*
1,1,0.0125,0.0188,-0.0188*
1,1,0.0125,-0.0188,-0.0188*
%
%ADD29ROUNDEDRECTD29*%
%ADD30R,0.0354X0.0709*%
%ADD31R,0.0630X0.0945*%
%ADD32R,0.0315X0.0630*%
%ADD33R,0.0630X0.0118*%
%ADD34R,0.0400X0.0500*%
%ADD35R,0.0500X0.0400*%
%ADD36C,0.0120*%
%ADD37C,0.0100*%
%ADD38C,0.0300*%
%ADD39C,0.0200*%
%ADD40C,0.0150*%
%ADD41C,0.0400*%
%ADD42C,0.0250*%
%ADD43C,0.0160*%
%ADD44C,0.0350*%
%ADD45C,0.0551*%
%ADD46C,0.0591*%
%ADD47R,0.0591X0.0591*%
%ADD48C,0.0250*%
%ADD49C,0.0260*%
G36*
X16098Y6756D02*
X15833Y6490D01*
X15769Y6482D01*
X15694Y6451D01*
X15629Y6401D01*
X15579Y6336D01*
X15566Y6304D01*
X15561Y6297D01*
X15561Y6296D01*
X15556Y6273D01*
X15548Y6270D01*
X15506Y6265D01*
X15492Y6287D01*
X15468Y6302D01*
X15462Y6332D01*
X15461Y6358D01*
X15480Y6370D01*
X15483Y6375D01*
X15217D01*
X15220Y6370D01*
X15231Y6363D01*
X15216Y6313D01*
X14916D01*
X14881Y6306D01*
X14851Y6287D01*
X14831Y6257D01*
X14824Y6222D01*
Y5986D01*
X14831Y5951D01*
X14851Y5921D01*
X14881Y5902D01*
X14916Y5895D01*
X15427D01*
X15462Y5902D01*
X15484Y5916D01*
X15684D01*
X15694Y5909D01*
X15759Y5882D01*
X15749Y5832D01*
X14790D01*
X14790Y5832D01*
X14747Y5824D01*
X14711Y5799D01*
X14711Y5799D01*
X14525Y5614D01*
X14475Y5635D01*
Y5848D01*
X14468Y5883D01*
X14449Y5913D01*
X14419Y5932D01*
X14384Y5939D01*
X14273D01*
Y5730D01*
Y5521D01*
X14314D01*
X14341Y5471D01*
X14333Y5459D01*
X13318D01*
X13297Y5509D01*
X13889Y6101D01*
X13889Y6101D01*
X13914Y6137D01*
X13922Y6180D01*
Y6735D01*
X13930Y6737D01*
X13990Y6777D01*
X14030Y6836D01*
X14044Y6906D01*
X14030Y6977D01*
X13990Y7036D01*
X13930Y7076D01*
X13914Y7079D01*
X13900Y7127D01*
X14281Y7508D01*
X16098D01*
Y6756D01*
D02*
G37*
G36*
X16030Y6290D02*
Y6270D01*
X15670D01*
Y6300D01*
X15760Y6390D01*
X15930D01*
X16030Y6290D01*
D02*
G37*
G36*
X10307Y1809D02*
X10352Y1800D01*
X10396Y1809D01*
X10414Y1821D01*
X10450Y1830D01*
X10486Y1821D01*
X10504Y1809D01*
X10548Y1800D01*
X10593Y1809D01*
X10598Y1812D01*
X10648Y1785D01*
Y1650D01*
X10656Y1611D01*
X10678Y1578D01*
X11431Y825D01*
X11420Y766D01*
X11386Y752D01*
X11314Y696D01*
X11258Y624D01*
X11224Y540D01*
X11212Y450D01*
X11224Y360D01*
X11258Y276D01*
X11314Y204D01*
X11332Y190D01*
X11315Y140D01*
X10805D01*
X10788Y190D01*
X10806Y204D01*
X10862Y276D01*
X10896Y360D01*
X10908Y450D01*
X10896Y540D01*
X10862Y624D01*
X10806Y696D01*
X10734Y752D01*
X10650Y786D01*
X10560Y798D01*
X10470Y786D01*
X10386Y752D01*
X10314Y696D01*
X10258Y624D01*
X10224Y540D01*
X10212Y450D01*
X10224Y360D01*
X10258Y276D01*
X10314Y204D01*
X10332Y190D01*
X10315Y140D01*
X9805D01*
X9788Y190D01*
X9806Y204D01*
X9862Y276D01*
X9896Y360D01*
X9908Y450D01*
X9896Y540D01*
X9862Y624D01*
X9806Y696D01*
X9734Y752D01*
X9650Y786D01*
X9560Y798D01*
X9470Y786D01*
X9386Y752D01*
X9314Y696D01*
X9258Y624D01*
X9224Y540D01*
X9212Y450D01*
X9224Y360D01*
X9258Y276D01*
X9314Y204D01*
X9332Y190D01*
X9315Y140D01*
X8805D01*
X8788Y190D01*
X8806Y204D01*
X8862Y276D01*
X8896Y360D01*
X8908Y450D01*
X8896Y540D01*
X8862Y624D01*
X8806Y696D01*
X8752Y738D01*
X8769Y788D01*
X9012D01*
X9012Y788D01*
X9055Y796D01*
X9091Y821D01*
X9839Y1569D01*
X9864Y1605D01*
X9872Y1648D01*
X9872Y1648D01*
Y1776D01*
X9889Y1790D01*
X9922Y1807D01*
X9958Y1800D01*
X10003Y1809D01*
X10041Y1834D01*
X10047D01*
X10052Y1830D01*
X10258Y1824D01*
X10267Y1834D01*
X10269D01*
X10307Y1809D01*
D02*
G37*
G36*
X11291Y6258D02*
X11336Y6249D01*
X11368Y6255D01*
X11418Y6227D01*
Y6091D01*
X11410Y6090D01*
X11350Y6050D01*
X11310Y5990D01*
X11296Y5920D01*
X11310Y5850D01*
X11350Y5790D01*
X11410Y5750D01*
X11480Y5736D01*
X11550Y5750D01*
X11610Y5790D01*
X11650Y5850D01*
X11658Y5891D01*
X11708Y5887D01*
Y5240D01*
X11708Y5240D01*
X11716Y5197D01*
X11741Y5160D01*
X12001Y4900D01*
X12002Y4899D01*
X12031Y4871D01*
X12031Y4871D01*
X12067Y4846D01*
X12110Y4838D01*
X12110Y4838D01*
X12216D01*
X12245Y4788D01*
X12238Y4756D01*
X12247Y4711D01*
X12273Y4673D01*
Y4642D01*
X12247Y4604D01*
X12238Y4559D01*
X12244Y4529D01*
X12214Y4488D01*
X12170Y4489D01*
X12170Y4490D01*
X12110Y4530D01*
X12040Y4544D01*
X11970Y4530D01*
X11910Y4490D01*
X11870Y4430D01*
X11856Y4360D01*
X11870Y4290D01*
X11910Y4230D01*
X11970Y4190D01*
X12040Y4176D01*
X12110Y4190D01*
X12170Y4230D01*
X12171Y4232D01*
X12212Y4234D01*
X12244Y4193D01*
X12238Y4165D01*
X12247Y4121D01*
X12273Y4082D01*
Y4051D01*
X12247Y4013D01*
X12238Y3968D01*
X12245Y3934D01*
X12226Y3899D01*
X12214Y3884D01*
X12152D01*
X12109Y3875D01*
X12072Y3851D01*
X12072Y3851D01*
X11841Y3619D01*
X11816Y3583D01*
X11808Y3540D01*
X11808Y3540D01*
Y2860D01*
X11808Y2860D01*
X11816Y2817D01*
X11841Y2780D01*
X11902Y2719D01*
X11886Y2664D01*
X11882Y2663D01*
X11864Y2651D01*
X11828Y2642D01*
X11792Y2651D01*
X11774Y2663D01*
X11730Y2672D01*
X11685Y2663D01*
X11647Y2638D01*
X11616D01*
X11578Y2663D01*
X11533Y2672D01*
X11488Y2663D01*
X11470Y2651D01*
X11434Y2642D01*
X11399Y2651D01*
X11381Y2663D01*
X11336Y2672D01*
X11301Y2665D01*
X11266Y2684D01*
X11251Y2697D01*
Y2848D01*
X11264Y2910D01*
X11250Y2980D01*
X11210Y3040D01*
X11150Y3080D01*
X11080Y3094D01*
X11010Y3080D01*
X10950Y3040D01*
X10910Y2980D01*
X10896Y2910D01*
X10910Y2840D01*
X10950Y2780D01*
X11010Y2740D01*
X11011Y2740D01*
X11016Y2695D01*
X10976Y2666D01*
X10942Y2672D01*
X10897Y2663D01*
X10879Y2651D01*
X10844Y2642D01*
X10808Y2651D01*
X10790Y2663D01*
X10745Y2672D01*
X10711Y2665D01*
X10676Y2684D01*
X10661Y2697D01*
Y3689D01*
X10670Y3690D01*
X10730Y3730D01*
X10770Y3790D01*
X10784Y3860D01*
X10770Y3930D01*
X10730Y3990D01*
X10670Y4030D01*
X10600Y4044D01*
X10530Y4030D01*
X10514Y4019D01*
X10464Y4046D01*
Y4353D01*
X10510Y4372D01*
X11341Y3541D01*
X11378Y3516D01*
X11418Y3508D01*
X11430Y3490D01*
X11490Y3450D01*
X11560Y3436D01*
X11630Y3450D01*
X11690Y3490D01*
X11730Y3550D01*
X11744Y3620D01*
X11730Y3690D01*
X11690Y3750D01*
X11630Y3790D01*
X11560Y3804D01*
X11490Y3790D01*
X11442Y3757D01*
X8997Y6202D01*
X9013Y6257D01*
X9018Y6258D01*
X9057Y6283D01*
X9088D01*
X9126Y6258D01*
X9170Y6249D01*
X9215Y6258D01*
X9253Y6283D01*
X9284D01*
X9322Y6258D01*
X9367Y6249D01*
X9412Y6258D01*
X9430Y6270D01*
X9466Y6279D01*
X9501Y6270D01*
X9519Y6258D01*
X9564Y6249D01*
X9609Y6258D01*
X9647Y6283D01*
X9678D01*
X9716Y6258D01*
X9761Y6249D01*
X9806Y6258D01*
X9824Y6270D01*
X9859Y6279D01*
X9895Y6270D01*
X9913Y6258D01*
X9933Y6254D01*
X9958Y6202D01*
X9958Y6202D01*
X9950Y6190D01*
X9936Y6120D01*
X9950Y6050D01*
X9990Y5990D01*
X10050Y5950D01*
X10120Y5936D01*
X10190Y5950D01*
X10250Y5990D01*
X10290Y6050D01*
X10304Y6120D01*
X10290Y6190D01*
X10289Y6191D01*
X10309Y6251D01*
X10317Y6256D01*
X10352Y6249D01*
X10396Y6258D01*
X10414Y6270D01*
X10450Y6279D01*
X10486Y6270D01*
X10504Y6258D01*
X10548Y6249D01*
X10593Y6258D01*
X10631Y6283D01*
X10662D01*
X10700Y6258D01*
X10745Y6249D01*
X10790Y6258D01*
X10828Y6283D01*
X10859D01*
X10897Y6258D01*
X10942Y6249D01*
X10987Y6258D01*
X11025Y6283D01*
X11056D01*
X11094Y6258D01*
X11139Y6249D01*
X11184Y6258D01*
X11222Y6283D01*
X11253D01*
X11291Y6258D01*
D02*
G37*
G36*
X21708Y7328D02*
Y7200D01*
X21716Y7161D01*
X21738Y7128D01*
X22065Y6801D01*
X22051Y6753D01*
X22034Y6750D01*
X22001Y6727D01*
X21951Y6754D01*
Y6843D01*
X21221D01*
X21212Y6889D01*
Y7753D01*
X21262Y7774D01*
X21708Y7328D01*
D02*
G37*
G36*
X4423Y1622D02*
X3595Y794D01*
X3560Y798D01*
X3470Y786D01*
X3386Y752D01*
X3314Y696D01*
X3258Y624D01*
X3224Y540D01*
X3212Y450D01*
X3224Y360D01*
X3258Y276D01*
X3314Y204D01*
X3332Y190D01*
X3315Y140D01*
X2805D01*
X2788Y190D01*
X2806Y204D01*
X2862Y276D01*
X2896Y360D01*
X2908Y450D01*
X2896Y540D01*
X2862Y624D01*
X2810Y691D01*
X3786Y1668D01*
X4404D01*
X4423Y1622D01*
D02*
G37*
G36*
X19740Y6310D02*
Y6280D01*
X19380D01*
Y6300D01*
X19480Y6400D01*
X19650D01*
X19740Y6310D01*
D02*
G37*
G36*
X3592Y1790D02*
X2595Y794D01*
X2560Y798D01*
X2470Y786D01*
X2386Y752D01*
X2314Y696D01*
X2258Y624D01*
X2224Y540D01*
X2212Y450D01*
X2224Y360D01*
X2258Y276D01*
X2314Y204D01*
X2332Y190D01*
X2315Y140D01*
X1805D01*
X1788Y190D01*
X1806Y204D01*
X1862Y276D01*
X1896Y360D01*
X1908Y450D01*
X1896Y540D01*
X1862Y624D01*
X1816Y684D01*
X2969Y1837D01*
X3573D01*
X3592Y1790D01*
D02*
G37*
G36*
X5960Y6490D02*
X5960Y6490D01*
X5960D01*
X5966Y6440D01*
X5965Y6439D01*
X5955Y6385D01*
Y6104D01*
X5940Y6060D01*
X5905Y6060D01*
X5865D01*
Y5860D01*
X5740D01*
Y5735D01*
X5540D01*
Y5660D01*
X5940D01*
Y5747D01*
X5990Y5762D01*
X5996Y5753D01*
X6042Y5723D01*
X6096Y5712D01*
X6325D01*
X6340Y5662D01*
X6321Y5649D01*
X6321Y5649D01*
X6070Y5399D01*
X6033Y5416D01*
X6023Y5422D01*
X6010Y5490D01*
X5970Y5550D01*
X5910Y5590D01*
X5840Y5604D01*
X5770Y5590D01*
X5710Y5550D01*
X5678Y5501D01*
X5661Y5497D01*
X5639D01*
X5622Y5501D01*
X5590Y5550D01*
X5530Y5590D01*
X5460Y5604D01*
X5390Y5590D01*
X5330Y5550D01*
X5310Y5520D01*
X5250D01*
X5230Y5550D01*
X5170Y5590D01*
X5100Y5604D01*
X5038Y5591D01*
X5018Y5611D01*
X5007Y5632D01*
X5031Y5660D01*
X5390D01*
Y6060D01*
X5133D01*
X5118Y6110D01*
X5119Y6111D01*
X5327Y6318D01*
X5559D01*
X5625Y6331D01*
X5680Y6369D01*
X5718Y6424D01*
X5731Y6490D01*
Y6845D01*
X5960D01*
Y6490D01*
D02*
G37*
G36*
X15996Y5570D02*
X15989Y5513D01*
X16001Y5423D01*
X16035Y5339D01*
X16091Y5267D01*
X16163Y5211D01*
X16247Y5177D01*
X16267Y5174D01*
Y5070D01*
X15970D01*
Y4670D01*
X15932Y4642D01*
X15858D01*
X15820Y4670D01*
X15820Y4692D01*
Y4745D01*
X15620D01*
Y4870D01*
X15495D01*
Y5070D01*
X15420D01*
Y4910D01*
X15370Y4894D01*
X15360Y4910D01*
X15355Y4913D01*
Y4780D01*
X15230D01*
Y4655D01*
X15052D01*
X15045Y4642D01*
X14770D01*
Y4784D01*
X14822Y4836D01*
X14870Y4826D01*
X14940Y4840D01*
X15000Y4880D01*
X15040Y4940D01*
X15054Y5010D01*
X15046Y5050D01*
X15143Y5147D01*
X15427D01*
X15462Y5154D01*
X15492Y5173D01*
X15512Y5203D01*
X15519Y5238D01*
Y5474D01*
X15512Y5509D01*
X15492Y5539D01*
X15462Y5558D01*
X15469Y5608D01*
X15940D01*
X15940Y5608D01*
X15951Y5610D01*
X15996Y5570D01*
D02*
G37*
G36*
X9968Y4674D02*
Y3972D01*
X9950Y3960D01*
X9910Y3900D01*
X9896Y3830D01*
X9910Y3760D01*
X9950Y3700D01*
X10010Y3660D01*
X10080Y3646D01*
X10150Y3660D01*
X10189Y3687D01*
X10239Y3661D01*
Y3016D01*
X10189Y3000D01*
X10170Y3030D01*
X10110Y3070D01*
X10040Y3084D01*
X9970Y3070D01*
X9910Y3030D01*
X9870Y2970D01*
X9856Y2900D01*
X9862Y2872D01*
X9854Y2861D01*
X9846Y2818D01*
X9846Y2818D01*
Y2697D01*
X9831Y2684D01*
X9796Y2665D01*
X9761Y2672D01*
X9726Y2665D01*
X9691Y2684D01*
X9676Y2697D01*
Y2846D01*
X9668Y2889D01*
X9643Y2925D01*
X9643Y2925D01*
X9637Y2931D01*
X9630Y2970D01*
X9590Y3030D01*
X9530Y3070D01*
X9460Y3084D01*
X9434Y3078D01*
X9392Y3121D01*
X9394Y3130D01*
X9380Y3200D01*
X9340Y3260D01*
X9312Y3278D01*
Y3338D01*
X9330Y3350D01*
X9370Y3410D01*
X9384Y3480D01*
X9370Y3550D01*
X9330Y3610D01*
X9275Y3647D01*
X9269Y3671D01*
X9266Y3701D01*
X9280Y3710D01*
X9320Y3770D01*
X9334Y3840D01*
X9320Y3910D01*
X9280Y3970D01*
X9256Y3986D01*
X9255Y3988D01*
X9260Y4043D01*
X9300Y4070D01*
X9340Y4130D01*
X9354Y4200D01*
X9340Y4270D01*
X9300Y4330D01*
X9240Y4370D01*
X9170Y4384D01*
X9100Y4370D01*
X9040Y4330D01*
X9020Y4299D01*
X8964Y4295D01*
X8817Y4442D01*
X8781Y4466D01*
X8738Y4474D01*
X8738Y4474D01*
X8686D01*
X8674Y4489D01*
X8655Y4524D01*
X8662Y4559D01*
X8656Y4590D01*
X8684Y4640D01*
X8761D01*
X8790Y4620D01*
X8860Y4606D01*
X8930Y4620D01*
X8990Y4660D01*
X9030Y4720D01*
X9044Y4790D01*
X9030Y4860D01*
X8990Y4920D01*
X8974Y4930D01*
Y5517D01*
X8990Y5540D01*
X8996Y5574D01*
X9051Y5591D01*
X9968Y4674D01*
D02*
G37*
G36*
X14842Y5592D02*
X14852Y5539D01*
X14851Y5539D01*
X14831Y5509D01*
X14824Y5474D01*
Y5238D01*
X14831Y5203D01*
X14800Y5180D01*
X14740Y5140D01*
X14700Y5080D01*
X14699Y5074D01*
X14655Y5030D01*
X14370D01*
Y4671D01*
X14220D01*
Y4705D01*
X14020D01*
Y4830D01*
X13895D01*
Y5030D01*
X13876D01*
X13870Y5040D01*
X13865Y5043D01*
Y4910D01*
X13615D01*
Y5043D01*
X13610Y5040D01*
X13570Y4980D01*
X13566Y4960D01*
X13546Y4951D01*
X13512Y4945D01*
X13460Y4980D01*
X13390Y4994D01*
X13320Y4980D01*
X13260Y4940D01*
X13220Y4880D01*
X13215Y4852D01*
X13124D01*
X13098Y4902D01*
X13102Y4908D01*
X13111Y4953D01*
X13102Y4998D01*
X13076Y5036D01*
Y5067D01*
X13102Y5105D01*
X13111Y5150D01*
X13104Y5184D01*
X13122Y5219D01*
X13135Y5234D01*
X14416D01*
X14416Y5234D01*
X14459Y5243D01*
X14496Y5267D01*
X14825Y5596D01*
X14842Y5592D01*
D02*
G37*
G36*
X16030Y6070D02*
X15930Y5970D01*
X15760D01*
X15670Y6060D01*
Y6090D01*
X16030D01*
Y6070D01*
D02*
G37*
G36*
X19740D02*
X19650Y5980D01*
X19480D01*
X19380Y6080D01*
Y6100D01*
X19740D01*
Y6070D01*
D02*
G37*
G36*
X17638Y6119D02*
Y5664D01*
X17615D01*
Y4856D01*
X17748D01*
Y4642D01*
X17458D01*
X17420Y4670D01*
X17420Y4692D01*
Y4745D01*
X17020D01*
Y4692D01*
X17020Y4670D01*
X16982Y4642D01*
X16908D01*
X16870Y4670D01*
Y5070D01*
X16573D01*
Y5259D01*
X16583Y5267D01*
X16639Y5339D01*
X16673Y5423D01*
X16685Y5513D01*
X16673Y5603D01*
X16639Y5687D01*
X16583Y5759D01*
X16520Y5808D01*
X16526Y5843D01*
X16533Y5858D01*
X17007D01*
X17014Y5843D01*
X17020Y5808D01*
X16957Y5759D01*
X16901Y5687D01*
X16881Y5638D01*
X17525D01*
X17505Y5687D01*
X17449Y5759D01*
X17377Y5815D01*
X17339Y5830D01*
X17334Y5887D01*
X17339Y5891D01*
X17588Y6139D01*
X17638Y6119D01*
D02*
G37*
G36*
X15863Y1638D02*
X15844Y1592D01*
X15538D01*
X15511Y1642D01*
X15530Y1670D01*
X15544Y1740D01*
X15530Y1810D01*
X15490Y1870D01*
X15430Y1910D01*
X15360Y1924D01*
X15290Y1910D01*
X15230Y1870D01*
X15190Y1810D01*
X15189Y1802D01*
X15134D01*
X15111Y1846D01*
X15120Y1860D01*
X15134Y1930D01*
X15120Y2000D01*
X15080Y2060D01*
X15020Y2100D01*
X14950Y2114D01*
X14880Y2100D01*
X14820Y2060D01*
X14808Y2042D01*
X12873D01*
X12860Y2110D01*
X12834Y2148D01*
X12861Y2198D01*
X13234D01*
X13251Y2181D01*
X13287Y2156D01*
X13300Y2154D01*
X13320Y2140D01*
X13390Y2126D01*
X13460Y2140D01*
X13520Y2180D01*
X13538Y2208D01*
X14282D01*
X14300Y2180D01*
X14360Y2140D01*
X14430Y2126D01*
X14500Y2140D01*
X14560Y2180D01*
X14600Y2240D01*
X14614Y2310D01*
X14600Y2380D01*
X14560Y2440D01*
X14526Y2462D01*
X14546Y2509D01*
X14560Y2506D01*
X14630Y2520D01*
X14690Y2560D01*
X14730Y2620D01*
X14743Y2688D01*
X14753Y2694D01*
X14790Y2711D01*
X15863Y1638D01*
D02*
G37*
G36*
X7358Y8730D02*
X7314Y8696D01*
X7258Y8624D01*
X7224Y8540D01*
X7212Y8450D01*
X7224Y8360D01*
X7258Y8276D01*
X7314Y8204D01*
X7386Y8148D01*
X7470Y8114D01*
X7560Y8102D01*
X7650Y8114D01*
X7734Y8148D01*
X7806Y8204D01*
X7850Y8261D01*
X7909Y8273D01*
X8371Y7811D01*
X8371Y7811D01*
X8407Y7786D01*
X8450Y7778D01*
X8450Y7778D01*
X8654D01*
X8759Y7672D01*
X8739Y7622D01*
X8642D01*
X8630Y7640D01*
X8570Y7680D01*
X8500Y7694D01*
X8430Y7680D01*
X8370Y7640D01*
X8330Y7580D01*
X8316Y7510D01*
X8330Y7440D01*
X8370Y7380D01*
X8430Y7340D01*
X8460Y7334D01*
Y7284D01*
X8440Y7280D01*
X8380Y7240D01*
X8340Y7180D01*
X8332Y7140D01*
X8279Y7130D01*
X8279Y7130D01*
X8279Y7130D01*
X7749Y7660D01*
X7765Y7696D01*
X7773Y7707D01*
X7840Y7720D01*
X7900Y7760D01*
X7903Y7765D01*
X7770D01*
Y7890D01*
X7645D01*
Y8023D01*
X7640Y8020D01*
X7600Y7960D01*
X7587Y7893D01*
X7576Y7885D01*
X7540Y7869D01*
X7190Y8219D01*
X7153Y8244D01*
X7110Y8252D01*
X7110Y8252D01*
X6947D01*
X6880Y8319D01*
X6896Y8360D01*
X6908Y8450D01*
X6896Y8540D01*
X6862Y8624D01*
X6806Y8696D01*
X6762Y8730D01*
X6779Y8780D01*
X7341D01*
X7358Y8730D01*
D02*
G37*
G36*
X18217Y490D02*
X18212Y450D01*
X18224Y360D01*
X18258Y276D01*
X18314Y204D01*
X18332Y190D01*
X18315Y140D01*
X17805D01*
X17788Y190D01*
X17806Y204D01*
X17862Y276D01*
X17896Y360D01*
X17908Y450D01*
X17896Y540D01*
X17862Y624D01*
X17806Y696D01*
X17734Y752D01*
X17650Y786D01*
X17560Y798D01*
X17470Y786D01*
X17398Y756D01*
X16982Y1172D01*
X17001Y1218D01*
X17489D01*
X18217Y490D01*
D02*
G37*
G36*
X9358Y8730D02*
X9314Y8696D01*
X9258Y8624D01*
X9224Y8540D01*
X9212Y8450D01*
X9224Y8360D01*
X9258Y8276D01*
X9314Y8204D01*
X9386Y8148D01*
X9470Y8114D01*
X9560Y8102D01*
X9611Y8109D01*
X9649Y8076D01*
Y7590D01*
X9599Y7570D01*
X8871Y8298D01*
X8896Y8360D01*
X8908Y8450D01*
X8896Y8540D01*
X8862Y8624D01*
X8806Y8696D01*
X8762Y8730D01*
X8779Y8780D01*
X9341D01*
X9358Y8730D01*
D02*
G37*
G36*
X21249Y602D02*
X21224Y540D01*
X21212Y450D01*
X21224Y360D01*
X21258Y276D01*
X21314Y204D01*
X21332Y190D01*
X21315Y140D01*
X20805D01*
X20788Y190D01*
X20806Y204D01*
X20862Y276D01*
X20896Y360D01*
X20908Y450D01*
X20896Y540D01*
X20862Y624D01*
X20806Y696D01*
X20734Y752D01*
X20650Y786D01*
X20560Y798D01*
X20490Y789D01*
X20177Y1102D01*
X20196Y1148D01*
X20704D01*
X21249Y602D01*
D02*
G37*
G36*
X20293Y669D02*
X20258Y624D01*
X20224Y540D01*
X20212Y450D01*
X20224Y360D01*
X20258Y276D01*
X20314Y204D01*
X20332Y190D01*
X20315Y140D01*
X19805D01*
X19788Y190D01*
X19806Y204D01*
X19862Y276D01*
X19896Y360D01*
X19908Y450D01*
X19896Y540D01*
X19862Y624D01*
X19806Y696D01*
X19734Y752D01*
X19650Y786D01*
X19560Y798D01*
X19470Y786D01*
X19408Y761D01*
X19237Y932D01*
X19256Y978D01*
X19984D01*
X20293Y669D01*
D02*
G37*
G36*
X5358Y8730D02*
X5314Y8696D01*
X5258Y8624D01*
X5224Y8540D01*
X5212Y8450D01*
X5224Y8360D01*
X5258Y8276D01*
X5314Y8204D01*
X5386Y8148D01*
X5470Y8114D01*
X5560Y8102D01*
X5650Y8114D01*
X5712Y8139D01*
X5961Y7891D01*
X5961Y7891D01*
X5997Y7866D01*
X6040Y7858D01*
X6040Y7858D01*
X6994D01*
X7918Y6934D01*
Y6770D01*
X7918Y6770D01*
X7926Y6727D01*
X7951Y6691D01*
X8185Y6456D01*
X8175Y6444D01*
Y6270D01*
X8050D01*
Y6145D01*
X7917D01*
X7920Y6140D01*
X7934Y6131D01*
X7945Y6064D01*
X7937Y6054D01*
X7907D01*
X7881Y6049D01*
X7656D01*
X7610Y6060D01*
X7610Y6099D01*
Y6135D01*
X7210D01*
Y6060D01*
X7303D01*
X7317Y6036D01*
X7321Y6010D01*
X6994Y5682D01*
X6907D01*
X6892Y5732D01*
X6924Y5753D01*
X6955Y5799D01*
X6965Y5853D01*
Y5994D01*
X6460D01*
Y6244D01*
X6965D01*
Y6385D01*
X6955Y6439D01*
X6954Y6440D01*
X6960Y6490D01*
X6960D01*
X6960Y6490D01*
Y6816D01*
X7006Y6835D01*
X7116Y6726D01*
X7182Y6682D01*
X7210Y6676D01*
Y6610D01*
X7610D01*
Y7010D01*
X7537D01*
X7534Y7014D01*
X7468Y7058D01*
X7390Y7074D01*
X7344D01*
X7023Y7395D01*
X6965Y7434D01*
Y7527D01*
X6955Y7581D01*
X6924Y7627D01*
X6878Y7657D01*
X6874Y7658D01*
X6840Y7680D01*
X6770Y7694D01*
X6700Y7680D01*
X6681Y7668D01*
X6163D01*
X6130Y7674D01*
X6097Y7668D01*
X6096D01*
X6042Y7657D01*
X5996Y7627D01*
X5965Y7581D01*
X5962Y7563D01*
X5960Y7561D01*
X5946Y7491D01*
X5955Y7450D01*
Y7355D01*
X5731D01*
Y7710D01*
X5718Y7776D01*
X5680Y7831D01*
X5625Y7869D01*
X5559Y7882D01*
X5323D01*
X5257Y7869D01*
X5202Y7831D01*
X5165Y7776D01*
X5152Y7710D01*
Y6490D01*
X5157Y6465D01*
X4994Y6302D01*
X4850D01*
X4850Y6302D01*
X4807Y6294D01*
X4771Y6269D01*
X4771Y6269D01*
X4691Y6190D01*
X4450D01*
Y5802D01*
X4366D01*
X4300Y5869D01*
Y6190D01*
X3939D01*
X3824Y6305D01*
Y6675D01*
X3818Y6706D01*
X3808Y6721D01*
X3822Y6761D01*
X3830Y6771D01*
X4049D01*
Y6490D01*
X4062Y6424D01*
X4100Y6369D01*
X4155Y6331D01*
X4221Y6318D01*
X4457D01*
X4523Y6331D01*
X4578Y6369D01*
X4615Y6424D01*
X4628Y6490D01*
Y7710D01*
X4615Y7776D01*
X4578Y7831D01*
X4523Y7869D01*
X4457Y7882D01*
X4221D01*
X4155Y7869D01*
X4110Y7839D01*
X4070Y7858D01*
X4064Y7863D01*
X4074Y7910D01*
X4060Y7980D01*
X4020Y8040D01*
X3960Y8080D01*
X3890Y8094D01*
X3820Y8080D01*
X3760Y8040D01*
X3720Y7980D01*
X3706Y7910D01*
X3720Y7840D01*
X3727Y7830D01*
X3701Y7780D01*
X3565D01*
X3534Y7773D01*
X3508Y7756D01*
X3494Y7734D01*
X3467Y7732D01*
X3440Y7734D01*
X3426Y7756D01*
X3405Y7770D01*
Y7492D01*
X3155D01*
Y7770D01*
X3134Y7756D01*
X3120Y7734D01*
X3093Y7732D01*
X3066Y7734D01*
X3052Y7756D01*
X3026Y7773D01*
X2995Y7780D01*
X2817D01*
X2786Y7773D01*
X2760Y7756D01*
X2742Y7730D01*
X2736Y7699D01*
Y7536D01*
X2728Y7492D01*
Y7124D01*
X2741Y7056D01*
X2780Y6998D01*
X2806Y6971D01*
X2818Y6912D01*
X2820Y6909D01*
X2782Y6877D01*
X2624Y7034D01*
X2590Y7057D01*
Y7090D01*
X2577D01*
X2534Y7154D01*
X2481Y7190D01*
X2496Y7240D01*
X2590D01*
Y7315D01*
X2190D01*
Y7264D01*
X2190Y7240D01*
X2151Y7214D01*
X2078D01*
Y7564D01*
X2067Y7618D01*
X2037Y7664D01*
X1991Y7695D01*
X1937Y7705D01*
X1405D01*
X1351Y7695D01*
X1350Y7694D01*
X1300Y7700D01*
Y7700D01*
X1300Y7700D01*
X900D01*
X900Y7700D01*
Y7700D01*
X850Y7694D01*
X849Y7695D01*
X795Y7705D01*
X654D01*
Y7200D01*
Y6695D01*
X795D01*
X849Y6705D01*
X850Y6706D01*
X900Y6700D01*
Y6700D01*
X900Y6700D01*
X1300D01*
X1300Y6700D01*
Y6700D01*
X1350Y6706D01*
X1351Y6705D01*
X1405Y6695D01*
X1937D01*
X1991Y6705D01*
X2037Y6736D01*
X2067Y6782D01*
X2072Y6806D01*
X2190D01*
Y6690D01*
X2370D01*
X2390Y6686D01*
X2396D01*
X2736Y6345D01*
Y6262D01*
X2742Y6230D01*
X2760Y6204D01*
X2786Y6187D01*
X2817Y6180D01*
X2891D01*
X3123Y5949D01*
Y5400D01*
X3132Y5355D01*
X3157Y5318D01*
X3194Y5293D01*
X3239Y5284D01*
X3623D01*
X3667Y5293D01*
X3705Y5318D01*
X3730Y5355D01*
X3739Y5400D01*
Y5432D01*
X3789Y5459D01*
X3850Y5446D01*
X3871Y5451D01*
X3950Y5371D01*
Y5190D01*
X4350D01*
Y5578D01*
X4500D01*
Y5190D01*
X4691D01*
X4811Y5071D01*
X4811Y5071D01*
X4847Y5046D01*
X4890Y5038D01*
X5980D01*
X5980Y5038D01*
X6023Y5046D01*
X6059Y5071D01*
X6434Y5445D01*
X6437Y5446D01*
X6459Y5441D01*
X6475Y5387D01*
X5871Y4782D01*
X2747D01*
X2735Y4800D01*
X2694Y4828D01*
X2645Y4837D01*
X2595D01*
X2546Y4828D01*
X2505Y4800D01*
X2493Y4782D01*
X2120D01*
X2106Y4796D01*
X2070Y4820D01*
X2048Y4824D01*
X2028Y4876D01*
X2047Y4915D01*
X2048Y4915D01*
X2106Y4954D01*
X2296Y5144D01*
X2296Y5144D01*
X2335Y5202D01*
X2348Y5270D01*
X2395Y5284D01*
X2481D01*
X2526Y5293D01*
X2563Y5318D01*
X2588Y5355D01*
X2597Y5400D01*
Y6020D01*
X2588Y6065D01*
X2563Y6102D01*
X2526Y6127D01*
X2481Y6136D01*
X2371D01*
X2368Y6138D01*
X2290Y6154D01*
X2212Y6138D01*
X2209Y6136D01*
X2097D01*
X2053Y6127D01*
X2015Y6102D01*
X1990Y6065D01*
X1981Y6020D01*
Y5400D01*
X1990Y5355D01*
X1992Y5353D01*
Y5344D01*
X1854Y5206D01*
X1815Y5148D01*
X1807Y5105D01*
X1642D01*
X1623Y5101D01*
X1267D01*
Y4844D01*
Y4588D01*
Y4332D01*
Y4076D01*
Y4074D01*
X2017D01*
Y4093D01*
X6115D01*
X6115Y4093D01*
X6158Y4101D01*
X6194Y4125D01*
X6909Y4841D01*
X7423D01*
X7440Y4805D01*
X7590D01*
Y4555D01*
X7457D01*
X7460Y4550D01*
X7499Y4524D01*
X7484Y4474D01*
X7142D01*
X7099Y4466D01*
X7063Y4442D01*
X7063Y4442D01*
X6889Y4268D01*
X6870Y4270D01*
X6810Y4310D01*
X6740Y4324D01*
X6670Y4310D01*
X6610Y4270D01*
X6570Y4210D01*
X6556Y4140D01*
X6570Y4070D01*
X6609Y4012D01*
X6607Y4001D01*
X6592Y3962D01*
X6050D01*
X6050Y3962D01*
X6007Y3954D01*
X5971Y3929D01*
X5899Y3857D01*
X5880Y3870D01*
X5810Y3884D01*
X5740Y3870D01*
X5680Y3830D01*
X5640Y3770D01*
X5626Y3700D01*
X5640Y3630D01*
X5680Y3570D01*
X5740Y3530D01*
X5810Y3516D01*
X5880Y3530D01*
X5940Y3570D01*
X5969Y3614D01*
X5979Y3621D01*
X6096Y3738D01*
X6559D01*
X6564Y3688D01*
X6531Y3681D01*
X6503Y3662D01*
X6490Y3660D01*
X6430Y3620D01*
X6390Y3560D01*
X6376Y3490D01*
X6390Y3420D01*
X6430Y3360D01*
X6456Y3343D01*
X6440Y3293D01*
X5675D01*
X5560Y3409D01*
Y3650D01*
X5160D01*
Y3250D01*
X5401D01*
X5550Y3102D01*
X5550Y3102D01*
X5651Y3001D01*
X5651Y3001D01*
X5687Y2976D01*
X5705Y2973D01*
X5720Y2950D01*
X5780Y2910D01*
X5850Y2896D01*
X5920Y2910D01*
X5980Y2950D01*
X6020Y3010D01*
X6031Y3069D01*
X6140D01*
X6160Y3019D01*
X5884Y2742D01*
X5820Y2730D01*
X5760Y2690D01*
X5720Y2630D01*
X5717Y2612D01*
X5580D01*
Y2700D01*
X5180D01*
Y2300D01*
X5580D01*
Y2388D01*
X5800D01*
X5818Y2391D01*
X5820Y2390D01*
X5890Y2376D01*
X5960Y2390D01*
X6020Y2430D01*
X6060Y2490D01*
X6074Y2560D01*
X6064Y2606D01*
X6331Y2872D01*
X7881D01*
X7907Y2867D01*
X8544D01*
X8589Y2876D01*
X8608Y2888D01*
X8658Y2864D01*
Y2076D01*
X8474Y1892D01*
X6580D01*
X6561Y1938D01*
X6622Y2000D01*
X6770D01*
Y2400D01*
X6768D01*
Y2584D01*
X6774Y2610D01*
X6760Y2680D01*
X6720Y2740D01*
X6660Y2780D01*
X6590Y2794D01*
X6520Y2780D01*
X6460Y2740D01*
X6420Y2680D01*
X6406Y2610D01*
X6412Y2584D01*
Y2400D01*
X6370D01*
Y2252D01*
X6311Y2193D01*
X4494D01*
X4487Y2202D01*
X4472Y2243D01*
X4488Y2269D01*
X4497Y2313D01*
Y2388D01*
X4630D01*
Y2300D01*
X5030D01*
Y2700D01*
X4630D01*
Y2612D01*
X4497D01*
Y2688D01*
X4488Y2731D01*
X4464Y2769D01*
X4426Y2793D01*
X4383Y2802D01*
X4008D01*
X3975Y2796D01*
X3970Y2800D01*
Y2800D01*
X3670D01*
Y2800D01*
X3665Y2796D01*
X3632Y2802D01*
X3570D01*
Y2500D01*
X3445D01*
Y2375D01*
X3143D01*
Y2313D01*
X3152Y2269D01*
X3168Y2243D01*
X3153Y2202D01*
X3146Y2193D01*
X2895D01*
X2827Y2180D01*
X2769Y2141D01*
X1734Y1106D01*
X1687Y1125D01*
Y1380D01*
X1750D01*
Y1780D01*
X1350D01*
Y1380D01*
X1433D01*
Y804D01*
X1402Y758D01*
X1386Y752D01*
X1314Y696D01*
X1258Y624D01*
X1224Y540D01*
X1212Y450D01*
X1224Y360D01*
X1258Y276D01*
X1314Y204D01*
X1332Y190D01*
X1315Y140D01*
X805D01*
X788Y190D01*
X806Y204D01*
X862Y276D01*
X896Y360D01*
X908Y450D01*
X896Y540D01*
X862Y624D01*
X806Y696D01*
X734Y752D01*
X650Y786D01*
X560Y798D01*
X470Y786D01*
X386Y752D01*
X314Y696D01*
X258Y624D01*
X250Y605D01*
X200Y615D01*
X203Y2974D01*
X212Y2979D01*
X253Y2987D01*
X298Y2929D01*
X366Y2877D01*
X405Y2861D01*
Y3161D01*
X530D01*
Y3286D01*
X831D01*
X814Y3326D01*
X762Y3394D01*
X694Y3446D01*
X615Y3479D01*
X530Y3490D01*
X445Y3479D01*
X366Y3446D01*
X298Y3394D01*
X254Y3336D01*
X209Y3346D01*
X204Y3349D01*
X204Y3564D01*
X954D01*
Y3863D01*
X530D01*
Y4113D01*
X954D01*
Y4412D01*
X240D01*
X205Y4448D01*
X205Y4509D01*
X954D01*
Y4808D01*
X530D01*
Y5058D01*
X954D01*
Y5357D01*
X241D01*
X206Y5392D01*
X206Y5565D01*
X256Y5582D01*
X298Y5528D01*
X366Y5475D01*
X445Y5443D01*
X530Y5431D01*
X615Y5443D01*
X694Y5475D01*
X762Y5528D01*
X814Y5596D01*
X831Y5635D01*
X530D01*
Y5760D01*
X405D01*
Y6060D01*
X366Y6044D01*
X298Y5992D01*
X257Y5938D01*
X207Y5955D01*
X207Y6655D01*
X258Y6696D01*
X263Y6695D01*
X404D01*
Y7200D01*
Y7705D01*
X263D01*
X259Y7705D01*
X209Y7746D01*
X209Y8057D01*
X215Y8105D01*
X435D01*
Y8450D01*
X560D01*
Y8575D01*
X905D01*
Y8780D01*
X1341D01*
X1358Y8730D01*
X1314Y8696D01*
X1258Y8624D01*
X1224Y8540D01*
X1212Y8450D01*
X1224Y8360D01*
X1258Y8276D01*
X1314Y8204D01*
X1386Y8148D01*
X1470Y8114D01*
X1560Y8102D01*
X1650Y8114D01*
X1734Y8148D01*
X1806Y8204D01*
X1862Y8276D01*
X1896Y8360D01*
X1908Y8450D01*
X1896Y8540D01*
X1862Y8624D01*
X1806Y8696D01*
X1762Y8730D01*
X1779Y8780D01*
X2341D01*
X2358Y8730D01*
X2314Y8696D01*
X2258Y8624D01*
X2224Y8540D01*
X2212Y8450D01*
X2224Y8360D01*
X2258Y8276D01*
X2314Y8204D01*
X2386Y8148D01*
X2470Y8114D01*
X2560Y8102D01*
X2650Y8114D01*
X2734Y8148D01*
X2806Y8204D01*
X2862Y8276D01*
X2896Y8360D01*
X2908Y8450D01*
X2896Y8540D01*
X2862Y8624D01*
X2806Y8696D01*
X2762Y8730D01*
X2779Y8780D01*
X3341D01*
X3358Y8730D01*
X3314Y8696D01*
X3258Y8624D01*
X3224Y8540D01*
X3212Y8450D01*
X3224Y8360D01*
X3258Y8276D01*
X3314Y8204D01*
X3386Y8148D01*
X3470Y8114D01*
X3560Y8102D01*
X3650Y8114D01*
X3734Y8148D01*
X3806Y8204D01*
X3862Y8276D01*
X3896Y8360D01*
X3908Y8450D01*
X3896Y8540D01*
X3862Y8624D01*
X3806Y8696D01*
X3762Y8730D01*
X3779Y8780D01*
X4341D01*
X4358Y8730D01*
X4314Y8696D01*
X4258Y8624D01*
X4224Y8540D01*
X4212Y8450D01*
X4224Y8360D01*
X4258Y8276D01*
X4314Y8204D01*
X4386Y8148D01*
X4470Y8114D01*
X4560Y8102D01*
X4650Y8114D01*
X4734Y8148D01*
X4806Y8204D01*
X4862Y8276D01*
X4896Y8360D01*
X4908Y8450D01*
X4896Y8540D01*
X4862Y8624D01*
X4806Y8696D01*
X4762Y8730D01*
X4779Y8780D01*
X5341D01*
X5358Y8730D01*
D02*
G37*
G36*
X23358D02*
X23314Y8696D01*
X23258Y8624D01*
X23224Y8540D01*
X23212Y8450D01*
X23224Y8360D01*
X23258Y8276D01*
X23314Y8204D01*
X23386Y8148D01*
X23470Y8114D01*
X23560Y8102D01*
X23650Y8114D01*
X23734Y8148D01*
X23806Y8204D01*
X23862Y8276D01*
X23896Y8360D01*
X23908Y8450D01*
X23897Y8532D01*
X23916Y8548D01*
X23943Y8557D01*
X24040Y8460D01*
Y7540D01*
X24004Y7454D01*
X23856Y7306D01*
X23830Y7295D01*
X23730Y7270D01*
X23700Y7261D01*
X23680Y7258D01*
X23630Y7258D01*
Y7258D01*
X23543Y7246D01*
X23461Y7213D01*
X23391Y7159D01*
X23337Y7089D01*
X23304Y7007D01*
X23292Y6920D01*
X23294D01*
Y2129D01*
X23297Y2114D01*
X23309Y2023D01*
X23349Y1924D01*
X23414Y1840D01*
X23499Y1775D01*
X23597Y1734D01*
X23703Y1720D01*
Y1720D01*
X23705Y1721D01*
X23795Y1710D01*
X23880Y1674D01*
X23953Y1618D01*
X24009Y1545D01*
X24040Y1470D01*
X24040Y1470D01*
X24040Y340D01*
X23910D01*
X23905Y388D01*
Y795D01*
X23685D01*
Y450D01*
X23560D01*
Y325D01*
X23215D01*
Y140D01*
X22805D01*
X22788Y190D01*
X22806Y204D01*
X22862Y276D01*
X22896Y360D01*
X22908Y450D01*
X22896Y540D01*
X22862Y624D01*
X22806Y696D01*
X22734Y752D01*
X22650Y786D01*
X22560Y798D01*
X22470Y786D01*
X22386Y752D01*
X22330Y709D01*
X21999Y1039D01*
X21963Y1064D01*
X21920Y1072D01*
X21920Y1072D01*
X21346D01*
X20909Y1509D01*
X20873Y1534D01*
X20830Y1542D01*
X20830Y1542D01*
X19933D01*
X19928Y1592D01*
X19930Y1592D01*
X19956Y1610D01*
X19973Y1636D01*
X19980Y1667D01*
Y1845D01*
X19973Y1876D01*
X19956Y1902D01*
X19930Y1919D01*
X19899Y1926D01*
X19485D01*
X19454Y1919D01*
X19428Y1902D01*
X19410Y1876D01*
X19404Y1845D01*
Y1667D01*
X19410Y1636D01*
X19428Y1610D01*
X19454Y1592D01*
X19456Y1592D01*
X19451Y1542D01*
X18909D01*
X18904Y1592D01*
X18906Y1592D01*
X18932Y1610D01*
X18950Y1636D01*
X18956Y1667D01*
Y1845D01*
X18950Y1876D01*
X18932Y1902D01*
X18910Y1916D01*
X18908Y1943D01*
X18910Y1970D01*
X18932Y1984D01*
X18946Y2005D01*
X18668D01*
Y2255D01*
X18946D01*
X18932Y2276D01*
X18910Y2290D01*
X18908Y2317D01*
X18910Y2344D01*
X18932Y2358D01*
X18950Y2384D01*
X18956Y2415D01*
Y2593D01*
X18950Y2624D01*
X18932Y2650D01*
X18906Y2668D01*
X18875Y2674D01*
X18728D01*
Y3640D01*
X18728Y3640D01*
X18715Y3708D01*
X18676Y3766D01*
X18676Y3766D01*
X18654Y3788D01*
X18640Y3810D01*
X18580Y3850D01*
X18510Y3864D01*
X18440Y3850D01*
X18380Y3810D01*
X18340Y3750D01*
X18326Y3680D01*
X18340Y3610D01*
X18372Y3563D01*
Y2698D01*
X18322Y2663D01*
X18300Y2667D01*
X17724D01*
X17665Y2655D01*
X17616Y2622D01*
X17604Y2610D01*
X17420D01*
Y2210D01*
X17820D01*
Y2361D01*
X18057D01*
Y1980D01*
X18059Y1970D01*
X18013Y1946D01*
X17839Y2119D01*
X17803Y2144D01*
X17760Y2152D01*
X17760Y2152D01*
X16156D01*
X15171Y3138D01*
X15187Y3192D01*
X15230Y3200D01*
X15290Y3240D01*
X15330Y3300D01*
X15336Y3334D01*
X15391Y3351D01*
X15608Y3134D01*
Y3070D01*
X15608Y3070D01*
X15616Y3027D01*
X15641Y2991D01*
X15931Y2701D01*
X15967Y2676D01*
X16010Y2668D01*
X16010Y2668D01*
X16631D01*
X16631Y2668D01*
X16674Y2676D01*
X16711Y2701D01*
X17076Y3066D01*
X17113Y3051D01*
X17203Y3039D01*
X17293Y3051D01*
X17377Y3085D01*
X17449Y3141D01*
X17505Y3213D01*
X17539Y3297D01*
X17551Y3387D01*
X17539Y3477D01*
X17505Y3561D01*
X17449Y3633D01*
X17412Y3662D01*
Y3790D01*
X17420D01*
Y4190D01*
X17020D01*
Y3790D01*
X17188D01*
Y3733D01*
X17113Y3723D01*
X17029Y3689D01*
X16957Y3633D01*
X16901Y3561D01*
X16867Y3477D01*
X16855Y3387D01*
X16867Y3297D01*
X16901Y3213D01*
X16903Y3211D01*
X16585Y2892D01*
X16056D01*
X15832Y3116D01*
Y3180D01*
X15824Y3223D01*
X15799Y3259D01*
X15799Y3259D01*
X15269Y3789D01*
X15233Y3814D01*
X15190Y3822D01*
X15190Y3822D01*
X14086D01*
X14053Y3856D01*
X14064Y3910D01*
X14050Y3980D01*
X14010Y4040D01*
X13950Y4080D01*
X13880Y4094D01*
X13810Y4080D01*
X13806Y4077D01*
X13780Y4082D01*
X13772Y4081D01*
X13486D01*
X13470Y4130D01*
X13473Y4135D01*
X13340D01*
Y4385D01*
X13473D01*
X13470Y4390D01*
X13459Y4397D01*
X13474Y4447D01*
X14300D01*
Y4050D01*
X14700D01*
Y4418D01*
X14850D01*
Y4321D01*
X14848Y4310D01*
X14850Y4299D01*
Y4050D01*
X15250D01*
Y4198D01*
X15363D01*
X15410Y4190D01*
X15410Y4148D01*
Y3790D01*
X15541D01*
X15995Y3336D01*
X16001Y3297D01*
X16035Y3213D01*
X16091Y3141D01*
X16163Y3085D01*
X16247Y3051D01*
X16337Y3039D01*
X16427Y3051D01*
X16511Y3085D01*
X16583Y3141D01*
X16639Y3213D01*
X16673Y3297D01*
X16685Y3387D01*
X16673Y3477D01*
X16639Y3561D01*
X16583Y3633D01*
X16511Y3689D01*
X16427Y3723D01*
X16337Y3735D01*
X16247Y3723D01*
X16163Y3689D01*
X16091Y3633D01*
X16081Y3621D01*
X16031Y3617D01*
X15810Y3839D01*
X15810Y4190D01*
X15857Y4198D01*
X15913D01*
X15960Y4190D01*
Y3790D01*
X16360D01*
Y3868D01*
X16470D01*
Y3790D01*
X16870D01*
Y4190D01*
X16602D01*
X16566Y4240D01*
X16574Y4280D01*
X16560Y4350D01*
X16548Y4368D01*
X16575Y4418D01*
X17748D01*
Y3564D01*
X17615D01*
Y2756D01*
X18069D01*
Y3564D01*
X17972D01*
Y4856D01*
X18069D01*
Y5664D01*
X17862D01*
Y6139D01*
X17914Y6191D01*
X17960Y6172D01*
Y6155D01*
X18460D01*
Y6330D01*
X18124D01*
X18105Y6376D01*
X18443Y6715D01*
X19015D01*
Y7405D01*
X18325D01*
Y6934D01*
X18302Y6916D01*
X18252Y6941D01*
Y7424D01*
X18496Y7668D01*
X18970D01*
X18970Y7668D01*
X19013Y7676D01*
X19049Y7701D01*
X19464Y8116D01*
X19470Y8114D01*
X19560Y8102D01*
X19650Y8114D01*
X19712Y8139D01*
X19957Y7895D01*
X19967Y7862D01*
X19970Y7845D01*
Y7775D01*
X20370D01*
Y7850D01*
X20417Y7858D01*
X20473D01*
X20520Y7850D01*
Y7450D01*
X20611D01*
Y7356D01*
X20594Y7343D01*
X20536Y7346D01*
X20510Y7363D01*
X20479Y7370D01*
X20301D01*
X20270Y7363D01*
X20244Y7346D01*
X20230Y7324D01*
X20203Y7322D01*
X20176Y7324D01*
X20162Y7346D01*
X20136Y7363D01*
X20105Y7370D01*
X19927D01*
X19896Y7363D01*
X19870Y7346D01*
X19852Y7320D01*
X19846Y7289D01*
Y6875D01*
X19852Y6844D01*
X19863Y6828D01*
Y6821D01*
X19542Y6500D01*
X19479Y6492D01*
X19404Y6461D01*
X19339Y6411D01*
X19298Y6358D01*
X19260Y6330D01*
X18760D01*
Y5730D01*
X19260D01*
Y5867D01*
X19394D01*
X19550Y5711D01*
X19531Y5664D01*
X19503D01*
Y5385D01*
X19605D01*
Y5590D01*
X19651Y5610D01*
X19691Y5570D01*
X19732Y5542D01*
X19776Y5534D01*
X19783Y5531D01*
X19820Y5508D01*
X19820Y5483D01*
Y5445D01*
X20220D01*
Y5520D01*
X20265Y5533D01*
X20325D01*
X20370Y5520D01*
Y5120D01*
X20407D01*
Y5000D01*
X20360D01*
Y4748D01*
X20356Y4743D01*
X20348Y4700D01*
X20348Y4700D01*
Y4582D01*
X20330Y4570D01*
X20290Y4510D01*
X20276Y4440D01*
X20290Y4370D01*
X20330Y4310D01*
X20390Y4270D01*
X20446Y4259D01*
X20479Y4225D01*
X20487Y4211D01*
X20487Y4210D01*
Y4090D01*
X20360D01*
Y3690D01*
X20487D01*
Y3192D01*
X20482Y3188D01*
X20414Y3120D01*
X20090D01*
Y2796D01*
X19951Y2657D01*
X19945D01*
X19930Y2668D01*
X19899Y2674D01*
X19485D01*
X19454Y2668D01*
X19428Y2650D01*
X19410Y2624D01*
X19404Y2593D01*
Y2415D01*
X19410Y2384D01*
X19428Y2358D01*
X19454Y2341D01*
X19485Y2334D01*
X19899D01*
X19930Y2341D01*
X19945Y2351D01*
X20014D01*
X20072Y2363D01*
X20090Y2319D01*
Y2195D01*
X20265D01*
Y2320D01*
X20095D01*
X20073Y2363D01*
X20122Y2396D01*
X20346Y2620D01*
X20690D01*
Y2947D01*
X20699Y2949D01*
X20748Y2982D01*
X20781Y3031D01*
X20793Y3090D01*
Y4103D01*
X20843Y4108D01*
X20850Y4070D01*
X20890Y4010D01*
X20950Y3970D01*
X21020Y3956D01*
X21090Y3970D01*
X21150Y4010D01*
X21171Y4042D01*
X21221Y4027D01*
Y3686D01*
X21174D01*
X21135Y3678D01*
X21102Y3656D01*
X20928Y3482D01*
X20906Y3449D01*
X20898Y3410D01*
Y2702D01*
X20768Y2572D01*
X20751Y2547D01*
X20710Y2520D01*
X20670Y2460D01*
X20656Y2390D01*
X20663Y2359D01*
X20631Y2320D01*
X20515D01*
Y2195D01*
X20690D01*
Y2214D01*
X20740Y2240D01*
X20770Y2220D01*
X20840Y2206D01*
X20910Y2220D01*
X20948Y2246D01*
X20998Y2219D01*
Y1830D01*
X21006Y1791D01*
X21028Y1758D01*
X21133Y1653D01*
X21126Y1620D01*
X21140Y1550D01*
X21180Y1490D01*
X21240Y1450D01*
X21310Y1436D01*
X21380Y1450D01*
X21440Y1490D01*
X21454Y1511D01*
X21501Y1491D01*
X21496Y1470D01*
X21510Y1400D01*
X21550Y1340D01*
X21610Y1300D01*
X21680Y1286D01*
X21750Y1300D01*
X21810Y1340D01*
X21850Y1400D01*
X21864Y1470D01*
X21850Y1540D01*
X21827Y1573D01*
X22021Y1767D01*
X22067Y1748D01*
Y1165D01*
X22382D01*
Y1034D01*
X23112D01*
Y2079D01*
X22728D01*
X22723Y2129D01*
X22780Y2140D01*
X22840Y2180D01*
X22880Y2240D01*
X22894Y2310D01*
X22880Y2380D01*
X22862Y2407D01*
Y3202D01*
X22854Y3241D01*
X22832Y3274D01*
X22253Y3853D01*
X22220Y3875D01*
X22181Y3883D01*
X21951D01*
Y4073D01*
X22383D01*
X22719Y3736D01*
X22730Y3720D01*
X22746Y3709D01*
X22758Y3698D01*
X22791Y3676D01*
X22830Y3668D01*
X22841Y3670D01*
X22860Y3666D01*
X22930Y3680D01*
X22990Y3720D01*
X23030Y3780D01*
X23044Y3850D01*
X23030Y3920D01*
X22990Y3980D01*
X22988Y3981D01*
X22985Y3997D01*
X22992Y4038D01*
X23040Y4070D01*
X23080Y4130D01*
X23094Y4200D01*
X23080Y4270D01*
X23040Y4330D01*
X22980Y4370D01*
X22910Y4384D01*
X22840Y4370D01*
X22780Y4330D01*
X22719Y4325D01*
X22404Y4641D01*
X22371Y4663D01*
X22332Y4670D01*
X22288D01*
X22263Y4720D01*
X22290Y4760D01*
X22298Y4803D01*
X22352Y4819D01*
X22431Y4741D01*
X22467Y4716D01*
X22510Y4708D01*
X22510Y4708D01*
X22818D01*
X22830Y4690D01*
X22890Y4650D01*
X22960Y4636D01*
X23030Y4650D01*
X23090Y4690D01*
X23130Y4750D01*
X23144Y4820D01*
X23130Y4890D01*
X23090Y4950D01*
X23030Y4990D01*
X22960Y5004D01*
X22890Y4990D01*
X22830Y4950D01*
X22818Y4932D01*
X22556D01*
X22250Y5238D01*
X22214Y5263D01*
X22171Y5271D01*
X22171Y5271D01*
X21951D01*
Y5441D01*
X22321D01*
X22601Y5161D01*
X22601Y5161D01*
X22637Y5136D01*
X22680Y5128D01*
X22680Y5128D01*
X22688D01*
X22700Y5110D01*
X22760Y5070D01*
X22830Y5056D01*
X22900Y5070D01*
X22960Y5110D01*
X23000Y5170D01*
X23014Y5240D01*
X23000Y5310D01*
X22960Y5370D01*
X22900Y5410D01*
X22830Y5424D01*
X22760Y5410D01*
X22705Y5373D01*
X22447Y5632D01*
X22410Y5656D01*
X22367Y5665D01*
X22367Y5665D01*
X21951D01*
Y5834D01*
X22091D01*
X22120Y5790D01*
X22180Y5750D01*
X22250Y5736D01*
X22320Y5750D01*
X22380Y5790D01*
X22420Y5850D01*
X22434Y5920D01*
X22420Y5990D01*
X22380Y6050D01*
X22320Y6090D01*
X22250Y6104D01*
X22180Y6090D01*
X22133Y6059D01*
X21951D01*
Y6228D01*
X22293D01*
X22641Y5881D01*
X22636Y5860D01*
X22650Y5790D01*
X22690Y5730D01*
X22750Y5690D01*
X22820Y5676D01*
X22890Y5690D01*
X22950Y5730D01*
X22990Y5790D01*
X23004Y5860D01*
X22990Y5930D01*
X22950Y5990D01*
X22890Y6030D01*
X22820Y6044D01*
X22799Y6039D01*
X22605Y6233D01*
X22637Y6272D01*
X22640Y6270D01*
X22710Y6256D01*
X22780Y6270D01*
X22840Y6310D01*
X22880Y6370D01*
X22894Y6440D01*
X22880Y6510D01*
X22840Y6570D01*
X22780Y6610D01*
X22710Y6624D01*
X22640Y6610D01*
X22583Y6571D01*
X22155Y6999D01*
X22174Y7045D01*
X22382D01*
Y6861D01*
X23112D01*
Y7906D01*
X22382D01*
Y7775D01*
X22067D01*
Y7152D01*
X22021Y7133D01*
X21912Y7242D01*
Y7370D01*
X21904Y7409D01*
X21882Y7442D01*
X20904Y8420D01*
X20908Y8450D01*
X20896Y8540D01*
X20862Y8624D01*
X20806Y8696D01*
X20762Y8730D01*
X20779Y8780D01*
X21341D01*
X21358Y8730D01*
X21314Y8696D01*
X21258Y8624D01*
X21224Y8540D01*
X21212Y8450D01*
X21224Y8360D01*
X21258Y8276D01*
X21314Y8204D01*
X21386Y8148D01*
X21470Y8114D01*
X21560Y8102D01*
X21650Y8114D01*
X21734Y8148D01*
X21806Y8204D01*
X21862Y8276D01*
X21896Y8360D01*
X21908Y8450D01*
X21896Y8540D01*
X21862Y8624D01*
X21806Y8696D01*
X21762Y8730D01*
X21779Y8780D01*
X22341D01*
X22358Y8730D01*
X22314Y8696D01*
X22258Y8624D01*
X22224Y8540D01*
X22212Y8450D01*
X22224Y8360D01*
X22258Y8276D01*
X22314Y8204D01*
X22386Y8148D01*
X22470Y8114D01*
X22560Y8102D01*
X22650Y8114D01*
X22734Y8148D01*
X22806Y8204D01*
X22862Y8276D01*
X22896Y8360D01*
X22908Y8450D01*
X22896Y8540D01*
X22862Y8624D01*
X22806Y8696D01*
X22762Y8730D01*
X22779Y8780D01*
X23341D01*
X23358Y8730D01*
D02*
G37*
G36*
X17254Y612D02*
X17224Y540D01*
X17212Y450D01*
X17224Y360D01*
X17258Y276D01*
X17314Y204D01*
X17332Y190D01*
X17315Y140D01*
X16805D01*
X16788Y190D01*
X16806Y204D01*
X16862Y276D01*
X16896Y360D01*
X16908Y450D01*
X16896Y540D01*
X16862Y624D01*
X16806Y696D01*
X16734Y752D01*
X16650Y786D01*
X16560Y798D01*
X16470Y786D01*
X16398Y756D01*
X16132Y1022D01*
X16151Y1068D01*
X16798D01*
X17254Y612D01*
D02*
G37*
G36*
X19358Y8730D02*
X19314Y8696D01*
X19258Y8624D01*
X19224Y8540D01*
X19212Y8450D01*
X19224Y8360D01*
X19258Y8276D01*
X19280Y8248D01*
X18924Y7892D01*
X18450D01*
X18407Y7884D01*
X18371Y7859D01*
X18371Y7859D01*
X18061Y7549D01*
X18036Y7513D01*
X18028Y7470D01*
X18028Y7470D01*
Y7229D01*
X17978Y7219D01*
X17972Y7234D01*
X17916Y7306D01*
X17844Y7362D01*
X17760Y7396D01*
X17670Y7408D01*
X17580Y7396D01*
X17496Y7362D01*
X17424Y7306D01*
X17368Y7234D01*
X17334Y7150D01*
X17322Y7060D01*
X17334Y6970D01*
X17368Y6886D01*
X17424Y6814D01*
X17496Y6758D01*
X17580Y6724D01*
X17670Y6712D01*
X17760Y6724D01*
X17801Y6741D01*
X17830Y6698D01*
X17326Y6195D01*
X17280Y6214D01*
Y6460D01*
X16880D01*
Y6082D01*
X16730D01*
Y6460D01*
X16330D01*
Y6352D01*
X16250D01*
X16215Y6345D01*
X16185Y6325D01*
X16181Y6321D01*
X16179Y6320D01*
X16122Y6333D01*
X16121Y6336D01*
X16071Y6401D01*
X16062Y6451D01*
X16064Y6460D01*
X16066Y6465D01*
X16255Y6653D01*
X16275Y6683D01*
X16282Y6718D01*
Y6981D01*
X16282Y6981D01*
Y7139D01*
X16282Y7139D01*
Y7508D01*
X16805D01*
X16810Y7480D01*
X16850Y7420D01*
X16910Y7380D01*
X16980Y7366D01*
X17050Y7380D01*
X17110Y7420D01*
X17150Y7480D01*
X17164Y7550D01*
X17150Y7620D01*
X17138Y7638D01*
X17165Y7688D01*
X17910D01*
X17910Y7688D01*
X17953Y7696D01*
X17989Y7721D01*
X18408Y8139D01*
X18470Y8114D01*
X18560Y8102D01*
X18650Y8114D01*
X18734Y8148D01*
X18806Y8204D01*
X18862Y8276D01*
X18896Y8360D01*
X18908Y8450D01*
X18896Y8540D01*
X18862Y8624D01*
X18806Y8696D01*
X18762Y8730D01*
X18779Y8780D01*
X19341D01*
X19358Y8730D01*
D02*
G37*
G36*
X11358D02*
X11314Y8696D01*
X11258Y8624D01*
X11224Y8540D01*
X11212Y8450D01*
X11224Y8360D01*
X11249Y8298D01*
X10469Y7518D01*
X10410Y7519D01*
X10390Y7550D01*
X10385Y7553D01*
Y7420D01*
X10135D01*
Y7553D01*
X10130Y7550D01*
X10120Y7535D01*
X10070Y7550D01*
Y7801D01*
X10408Y8139D01*
X10470Y8114D01*
X10560Y8102D01*
X10650Y8114D01*
X10734Y8148D01*
X10806Y8204D01*
X10862Y8276D01*
X10896Y8360D01*
X10908Y8450D01*
X10896Y8540D01*
X10862Y8624D01*
X10806Y8696D01*
X10762Y8730D01*
X10779Y8780D01*
X11341D01*
X11358Y8730D01*
D02*
G37*
G36*
X13358D02*
X13314Y8696D01*
X13258Y8624D01*
X13224Y8540D01*
X13212Y8450D01*
X13224Y8360D01*
X13258Y8276D01*
X13284Y8243D01*
X12894Y7852D01*
X12186D01*
X12167Y7898D01*
X12408Y8139D01*
X12470Y8114D01*
X12560Y8102D01*
X12650Y8114D01*
X12734Y8148D01*
X12806Y8204D01*
X12862Y8276D01*
X12896Y8360D01*
X12908Y8450D01*
X12896Y8540D01*
X12862Y8624D01*
X12806Y8696D01*
X12762Y8730D01*
X12779Y8780D01*
X13341D01*
X13358Y8730D01*
D02*
G37*
G36*
X6203Y1252D02*
X5712Y761D01*
X5650Y786D01*
X5560Y798D01*
X5470Y786D01*
X5386Y752D01*
X5314Y696D01*
X5258Y624D01*
X5224Y540D01*
X5212Y450D01*
X5224Y360D01*
X5258Y276D01*
X5314Y204D01*
X5332Y190D01*
X5315Y140D01*
X4805D01*
X4788Y190D01*
X4806Y204D01*
X4862Y276D01*
X4896Y360D01*
X4908Y450D01*
X4896Y540D01*
X4871Y602D01*
X5566Y1298D01*
X6184D01*
X6203Y1252D01*
D02*
G37*
G36*
X5383Y1432D02*
X4712Y761D01*
X4650Y786D01*
X4560Y798D01*
X4470Y786D01*
X4386Y752D01*
X4314Y696D01*
X4258Y624D01*
X4224Y540D01*
X4212Y450D01*
X4224Y360D01*
X4258Y276D01*
X4314Y204D01*
X4332Y190D01*
X4315Y140D01*
X3805D01*
X3788Y190D01*
X3806Y204D01*
X3862Y276D01*
X3896Y360D01*
X3908Y450D01*
X3896Y540D01*
X3862Y624D01*
X3810Y691D01*
X4596Y1478D01*
X5364D01*
X5383Y1432D01*
D02*
G37*
G36*
X7033Y1082D02*
X6712Y761D01*
X6650Y786D01*
X6560Y798D01*
X6470Y786D01*
X6386Y752D01*
X6314Y696D01*
X6258Y624D01*
X6224Y540D01*
X6212Y450D01*
X6224Y360D01*
X6258Y276D01*
X6314Y204D01*
X6332Y190D01*
X6315Y140D01*
X5805D01*
X5788Y190D01*
X5806Y204D01*
X5862Y276D01*
X5896Y360D01*
X5908Y450D01*
X5896Y540D01*
X5871Y602D01*
X6396Y1128D01*
X7014D01*
X7033Y1082D01*
D02*
G37*
G36*
X13386Y7412D02*
X12965Y6990D01*
X12918Y7014D01*
X12924Y7040D01*
X12910Y7110D01*
X12870Y7170D01*
X12810Y7210D01*
X12740Y7224D01*
X12670Y7210D01*
X12610Y7170D01*
X12570Y7110D01*
X12556Y7040D01*
X12561Y7019D01*
X12404Y6862D01*
X12044D01*
Y7004D01*
X12035Y7049D01*
X12009Y7087D01*
X11978Y7108D01*
X11978Y7134D01*
X11986Y7158D01*
X12127D01*
X12130Y7140D01*
X12170Y7080D01*
X12230Y7040D01*
X12300Y7026D01*
X12370Y7040D01*
X12430Y7080D01*
X12470Y7140D01*
X12484Y7210D01*
X12470Y7280D01*
X12430Y7340D01*
X12370Y7380D01*
X12300Y7394D01*
X12241Y7382D01*
X12240Y7382D01*
X12240Y7382D01*
X11880D01*
X11880Y7382D01*
X11837Y7374D01*
X11801Y7349D01*
X11735Y7284D01*
X11689Y7309D01*
X11694Y7330D01*
X11680Y7400D01*
X11671Y7414D01*
X11694Y7458D01*
X13367D01*
X13386Y7412D01*
D02*
G37*
%LPC*%
G36*
X19605Y3564D02*
X19503D01*
Y3285D01*
X19605D01*
Y3564D01*
D02*
G37*
G36*
X3300Y3315D02*
X3123D01*
Y3252D01*
X3132Y3209D01*
X3156Y3171D01*
X3194Y3147D01*
X3237Y3138D01*
X3300D01*
Y3315D01*
D02*
G37*
G36*
X19253Y3564D02*
X19151D01*
Y3285D01*
X19253D01*
Y3564D01*
D02*
G37*
G36*
X1370Y3076D02*
X1169D01*
Y2836D01*
X1370D01*
Y3076D01*
D02*
G37*
G36*
X1820D02*
X1620D01*
Y2836D01*
X1820D01*
Y3076D01*
D02*
G37*
G36*
X831Y3036D02*
X655D01*
Y2861D01*
X694Y2877D01*
X762Y2929D01*
X814Y2997D01*
X831Y3036D01*
D02*
G37*
G36*
X19885Y3765D02*
X19810D01*
Y3690D01*
X19885D01*
Y3765D01*
D02*
G37*
G36*
X3300Y3742D02*
X3237D01*
X3194Y3733D01*
X3156Y3709D01*
X3132Y3671D01*
X3123Y3627D01*
Y3565D01*
X3300D01*
Y3742D01*
D02*
G37*
G36*
X4363D02*
X3988D01*
X3955Y3736D01*
X3950Y3740D01*
Y3740D01*
X3650D01*
Y3740D01*
X3645Y3736D01*
X3613Y3742D01*
X3550D01*
Y3440D01*
Y3138D01*
X3613D01*
X3645Y3144D01*
X3650Y3140D01*
Y3140D01*
X3950D01*
Y3140D01*
X3955Y3144D01*
X3988Y3138D01*
X4363D01*
X4406Y3147D01*
X4444Y3171D01*
X4468Y3209D01*
X4477Y3252D01*
Y3328D01*
X4610D01*
Y3250D01*
X5010D01*
Y3650D01*
X4610D01*
Y3552D01*
X4477D01*
Y3627D01*
X4468Y3671D01*
X4444Y3709D01*
X4406Y3733D01*
X4363Y3742D01*
D02*
G37*
G36*
X20210Y3765D02*
X20135D01*
Y3690D01*
X20210D01*
Y3765D01*
D02*
G37*
G36*
X1820Y3566D02*
X1620D01*
Y3326D01*
X1820D01*
Y3566D01*
D02*
G37*
G36*
X1370D02*
X1169D01*
Y3326D01*
X1370D01*
Y3566D01*
D02*
G37*
G36*
X2677Y3647D02*
X2615D01*
Y3470D01*
X2792D01*
Y3532D01*
X2783Y3576D01*
X2759Y3614D01*
X2721Y3638D01*
X2677Y3647D01*
D02*
G37*
G36*
X2365D02*
X2303D01*
X2259Y3638D01*
X2221Y3614D01*
X2197Y3576D01*
X2188Y3532D01*
Y3470D01*
X2365D01*
Y3647D01*
D02*
G37*
G36*
X16945Y2285D02*
X16870D01*
Y2210D01*
X16945D01*
Y2285D01*
D02*
G37*
G36*
X7320Y2400D02*
X6920D01*
Y2000D01*
X7320D01*
Y2078D01*
X7370Y2081D01*
X7370Y2080D01*
X7430Y2040D01*
X7500Y2026D01*
X7570Y2040D01*
X7630Y2080D01*
X7670Y2140D01*
X7684Y2210D01*
X7670Y2280D01*
X7630Y2340D01*
X7570Y2380D01*
X7500Y2394D01*
X7430Y2380D01*
X7370Y2340D01*
X7370Y2339D01*
X7320Y2355D01*
Y2400D01*
D02*
G37*
G36*
X2792Y3220D02*
X2188D01*
Y3158D01*
X2194Y3125D01*
X2190Y3120D01*
X2190D01*
Y2820D01*
X2190D01*
X2194Y2815D01*
X2188Y2783D01*
Y2543D01*
X1902Y2257D01*
X1750D01*
Y2330D01*
X1350D01*
Y1930D01*
X1750D01*
Y2003D01*
X1955D01*
X2004Y2012D01*
X2045Y2040D01*
X2299Y2294D01*
X2303Y2293D01*
X2677D01*
X2721Y2302D01*
X2759Y2326D01*
X2783Y2364D01*
X2792Y2407D01*
Y2783D01*
X2786Y2815D01*
X2790Y2820D01*
X2790D01*
Y3120D01*
X2790D01*
X2786Y3125D01*
X2792Y3158D01*
Y3220D01*
D02*
G37*
G36*
X17270Y2285D02*
X17195D01*
Y2210D01*
X17270D01*
Y2285D01*
D02*
G37*
G36*
X20690Y1945D02*
X20515D01*
Y1820D01*
X20690D01*
Y1945D01*
D02*
G37*
G36*
X23435Y795D02*
X23215D01*
Y575D01*
X23435D01*
Y795D01*
D02*
G37*
G36*
X10285Y1733D02*
Y1725D01*
X10293D01*
X10290Y1730D01*
X10285Y1733D01*
D02*
G37*
G36*
X20265Y1945D02*
X20090D01*
Y1820D01*
X20265D01*
Y1945D01*
D02*
G37*
G36*
X3320Y2802D02*
X3257D01*
X3214Y2793D01*
X3176Y2769D01*
X3152Y2731D01*
X3143Y2688D01*
Y2625D01*
X3320D01*
Y2802D01*
D02*
G37*
G36*
X17270Y2610D02*
X17195D01*
Y2535D01*
X17270D01*
Y2610D01*
D02*
G37*
G36*
X19605Y3035D02*
X19503D01*
Y2756D01*
X19605D01*
Y3035D01*
D02*
G37*
G36*
X19253D02*
X19151D01*
Y2756D01*
X19253D01*
Y3035D01*
D02*
G37*
G36*
X16945Y2610D02*
X16870D01*
Y2535D01*
X16945D01*
Y2610D01*
D02*
G37*
G36*
X10035Y1733D02*
X10030Y1730D01*
X10027Y1725D01*
X10035D01*
Y1733D01*
D02*
G37*
G36*
Y1475D02*
X10027D01*
X10030Y1470D01*
X10035Y1467D01*
Y1475D01*
D02*
G37*
G36*
X10293D02*
X10285D01*
Y1467D01*
X10290Y1470D01*
X10293Y1475D01*
D02*
G37*
G36*
X1517Y3824D02*
X1267D01*
Y3820D01*
X1517D01*
Y3824D01*
D02*
G37*
G36*
X7925Y6403D02*
X7920Y6400D01*
X7917Y6395D01*
X7925D01*
Y6403D01*
D02*
G37*
G36*
X7610Y6460D02*
X7535D01*
Y6385D01*
X7610D01*
Y6460D01*
D02*
G37*
G36*
X15225Y6633D02*
X15220Y6630D01*
X15217Y6625D01*
X15225D01*
Y6633D01*
D02*
G37*
G36*
X14670Y7408D02*
X14580Y7396D01*
X14496Y7362D01*
X14424Y7306D01*
X14368Y7234D01*
X14334Y7150D01*
X14322Y7060D01*
X14334Y6970D01*
X14368Y6886D01*
X14424Y6814D01*
X14496Y6758D01*
X14580Y6724D01*
X14670Y6712D01*
X14760Y6724D01*
X14844Y6758D01*
X14916Y6814D01*
X14972Y6886D01*
X15006Y6970D01*
X15018Y7060D01*
X15006Y7150D01*
X14972Y7234D01*
X14916Y7306D01*
X14844Y7362D01*
X14760Y7396D01*
X14670Y7408D01*
D02*
G37*
G36*
X15475Y6633D02*
Y6625D01*
X15483D01*
X15480Y6630D01*
X15475Y6633D01*
D02*
G37*
G36*
X14023Y5939D02*
X13912D01*
X13877Y5932D01*
X13847Y5913D01*
X13827Y5883D01*
X13822Y5855D01*
X14023D01*
Y5939D01*
D02*
G37*
G36*
X1820Y6085D02*
X1620D01*
Y5845D01*
X1820D01*
Y6085D01*
D02*
G37*
G36*
X655Y6060D02*
Y5885D01*
X831D01*
X814Y5924D01*
X762Y5992D01*
X694Y6044D01*
X655Y6060D01*
D02*
G37*
G36*
X7285Y6460D02*
X7210D01*
Y6385D01*
X7285D01*
Y6460D01*
D02*
G37*
G36*
X5615Y6060D02*
X5540D01*
Y5985D01*
X5615D01*
Y6060D01*
D02*
G37*
G36*
X2265Y7640D02*
X2190D01*
Y7565D01*
X2265D01*
Y7640D01*
D02*
G37*
G36*
X20370Y7525D02*
X19970D01*
Y7450D01*
X20370D01*
Y7525D01*
D02*
G37*
G36*
X2590Y7640D02*
X2515D01*
Y7565D01*
X2590D01*
Y7640D01*
D02*
G37*
G36*
X905Y8325D02*
X685D01*
Y8105D01*
X905D01*
Y8325D01*
D02*
G37*
G36*
X7895Y8023D02*
Y8015D01*
X7903D01*
X7900Y8020D01*
X7895Y8023D01*
D02*
G37*
G36*
X16545Y6935D02*
X16348D01*
X16368Y6886D01*
X16424Y6814D01*
X16496Y6758D01*
X16545Y6738D01*
Y6935D01*
D02*
G37*
G36*
X15670Y7408D02*
X15580Y7396D01*
X15496Y7362D01*
X15424Y7306D01*
X15368Y7234D01*
X15334Y7150D01*
X15322Y7060D01*
X15334Y6970D01*
X15368Y6886D01*
X15424Y6814D01*
X15496Y6758D01*
X15580Y6724D01*
X15670Y6712D01*
X15760Y6724D01*
X15844Y6758D01*
X15916Y6814D01*
X15972Y6886D01*
X16006Y6970D01*
X16018Y7060D01*
X16006Y7150D01*
X15972Y7234D01*
X15916Y7306D01*
X15844Y7362D01*
X15760Y7396D01*
X15670Y7408D01*
D02*
G37*
G36*
X16992Y6935D02*
X16795D01*
Y6738D01*
X16844Y6758D01*
X16916Y6814D01*
X16972Y6886D01*
X16992Y6935D01*
D02*
G37*
G36*
X16795Y7382D02*
Y7185D01*
X16992D01*
X16972Y7234D01*
X16916Y7306D01*
X16844Y7362D01*
X16795Y7382D01*
D02*
G37*
G36*
X16545D02*
X16496Y7362D01*
X16424Y7306D01*
X16368Y7234D01*
X16348Y7185D01*
X16545D01*
Y7382D01*
D02*
G37*
G36*
X1370Y6085D02*
X1169D01*
Y5845D01*
X1370D01*
Y6085D01*
D02*
G37*
G36*
X19605Y5135D02*
X19503D01*
Y4856D01*
X19605D01*
Y5135D01*
D02*
G37*
G36*
X19253D02*
X19151D01*
Y4856D01*
X19253D01*
Y5135D01*
D02*
G37*
G36*
X15105Y4913D02*
X15100Y4910D01*
X15097Y4905D01*
X15105D01*
Y4913D01*
D02*
G37*
G36*
X14220Y5030D02*
X14145D01*
Y4955D01*
X14220D01*
Y5030D01*
D02*
G37*
G36*
X20210Y5000D02*
X19810D01*
Y4925D01*
X20210D01*
Y5000D01*
D02*
G37*
G36*
X19885Y4090D02*
X19810D01*
Y4015D01*
X19885D01*
Y4090D01*
D02*
G37*
G36*
X2017Y3824D02*
X1767D01*
Y3820D01*
X2017D01*
Y3824D01*
D02*
G37*
G36*
X20210Y4090D02*
X20135D01*
Y4015D01*
X20210D01*
Y4090D01*
D02*
G37*
G36*
Y4675D02*
X20135D01*
Y4600D01*
X20210D01*
Y4675D01*
D02*
G37*
G36*
X19885D02*
X19810D01*
Y4600D01*
X19885D01*
Y4675D01*
D02*
G37*
G36*
X19253Y5664D02*
X19151D01*
Y5385D01*
X19253D01*
Y5664D01*
D02*
G37*
G36*
X1820Y5595D02*
X1620D01*
Y5356D01*
X1820D01*
Y5595D01*
D02*
G37*
G36*
X14023Y5605D02*
X13822D01*
X13827Y5577D01*
X13847Y5547D01*
X13877Y5528D01*
X13912Y5521D01*
X14023D01*
Y5605D01*
D02*
G37*
G36*
X18460Y5905D02*
X18335D01*
Y5730D01*
X18460D01*
Y5905D01*
D02*
G37*
G36*
X18085D02*
X17960D01*
Y5730D01*
X18085D01*
Y5905D01*
D02*
G37*
G36*
X17420Y5070D02*
X17020D01*
Y4995D01*
X17420D01*
Y5070D01*
D02*
G37*
G36*
X15820D02*
X15745D01*
Y4995D01*
X15820D01*
Y5070D01*
D02*
G37*
G36*
X20220Y5195D02*
X19820D01*
Y5120D01*
X20220D01*
Y5195D01*
D02*
G37*
G36*
X1370Y5595D02*
X1169D01*
Y5356D01*
X1370D01*
Y5595D01*
D02*
G37*
G36*
X17525Y5388D02*
X16881D01*
X16901Y5339D01*
X16957Y5267D01*
X17029Y5211D01*
X17113Y5177D01*
X17203Y5165D01*
X17293Y5177D01*
X17377Y5211D01*
X17449Y5267D01*
X17505Y5339D01*
X17525Y5388D01*
D02*
G37*
%LPD*%
D10*
X15690Y6029D02*
G03*
X16010Y6029I160J151D01*
G01*
X15660Y6069D02*
G03*
X15690Y6029I190J111D01*
G01*
X15646Y6098D02*
G03*
X15660Y6069I204J82D01*
G01*
X15990Y6350D02*
G03*
X15913Y6391I-140J-170D01*
G01*
D02*
G03*
X15851Y6400I-63J-211D01*
G01*
X16054Y6262D02*
G03*
X15990Y6350I-204J-82D01*
G01*
X15851Y6400D02*
G03*
X15646Y6262I-1J-220D01*
G01*
X16040Y6069D02*
G03*
X16054Y6098I-190J111D01*
G01*
X16010Y6029D02*
G03*
X16026Y6049I-160J151D01*
G01*
D02*
G03*
X16040Y6069I-176J131D01*
G01*
X19620Y6402D02*
G03*
X19356Y6272I-60J-212D01*
G01*
X19651Y6390D02*
G03*
X19620Y6402I-91J-200D01*
G01*
X19764Y6272D02*
G03*
X19701Y6359I-204J-82D01*
G01*
D02*
G03*
X19651Y6390I-141J-169D01*
G01*
X19356Y6108D02*
G03*
X19420Y6020I204J82D01*
G01*
D02*
G03*
X19529Y5972I140J170D01*
G01*
D02*
G03*
X19622Y5979I31J218D01*
G01*
D02*
G03*
X19764Y6108I-62J211D01*
G01*
X15951Y6098D02*
X15961D01*
X16190Y6718D02*
Y7620D01*
X15781Y6309D02*
X16190Y6718D01*
X15980Y6262D02*
X16054D01*
X15851D02*
X15980D01*
X15646D02*
X15851D01*
X15961Y6098D02*
X16010D01*
X16054D01*
X15940Y6078D02*
X15970Y6049D01*
X15781Y6078D02*
X15881D01*
X15891D01*
X15940D01*
X15851Y6098D02*
X15951D01*
X15646D02*
X15851D01*
X15970Y6049D02*
X16039D01*
X16250Y6260D01*
X16530D01*
X19559Y6272D02*
X19764D01*
X19356D02*
X19559D01*
X19356Y6108D02*
X19469D01*
X19559D01*
X19764D01*
D11*
X2620Y4710D02*
D03*
Y4460D02*
D03*
D12*
X20010Y4800D02*
D03*
X20560D02*
D03*
X20010Y3890D02*
D03*
X20560D02*
D03*
X14020Y4830D02*
D03*
X14570D02*
D03*
X17080Y6260D02*
D03*
X16530D02*
D03*
X5740Y5860D02*
D03*
X5190D02*
D03*
X4100Y5990D02*
D03*
X4650D02*
D03*
X17070Y2410D02*
D03*
X17620D02*
D03*
X20170Y7650D02*
D03*
X20720D02*
D03*
X17220Y3990D02*
D03*
X16670D02*
D03*
X15610D02*
D03*
X16160D02*
D03*
X17220Y4870D02*
D03*
X16670D02*
D03*
X15620D02*
D03*
X16170D02*
D03*
X15050Y4250D02*
D03*
X14500D02*
D03*
X5360Y3450D02*
D03*
X4810D02*
D03*
X5380Y2500D02*
D03*
X4830D02*
D03*
X7120Y2200D02*
D03*
X6570D02*
D03*
X7420Y3530D02*
D03*
X6870D02*
D03*
X4150Y5390D02*
D03*
X4700D02*
D03*
X20020Y5320D02*
D03*
X20570D02*
D03*
D13*
X15172Y6104D02*
D03*
Y5356D02*
D03*
D14*
X14148Y5730D02*
D03*
D15*
X15851Y6329D02*
D03*
Y6029D02*
D03*
X19559Y6041D02*
D03*
Y6341D02*
D03*
D16*
X11926Y2236D02*
D03*
X11730D02*
D03*
X11533D02*
D03*
X11336D02*
D03*
X11139D02*
D03*
X10942D02*
D03*
X10745D02*
D03*
X10548D02*
D03*
X10352D02*
D03*
X10155D02*
D03*
X9958D02*
D03*
X9761D02*
D03*
X9564D02*
D03*
X9367D02*
D03*
X9170D02*
D03*
X8974D02*
D03*
Y6685D02*
D03*
X9170D02*
D03*
X9367D02*
D03*
X9564D02*
D03*
X9761D02*
D03*
X9958D02*
D03*
X10155D02*
D03*
X10352D02*
D03*
X10548D02*
D03*
X10745D02*
D03*
X10942D02*
D03*
X11139D02*
D03*
X11336D02*
D03*
X11533D02*
D03*
X11730D02*
D03*
X11926D02*
D03*
D17*
X8226Y2984D02*
D03*
Y3181D02*
D03*
Y3378D02*
D03*
Y3575D02*
D03*
Y3772D02*
D03*
Y3968D02*
D03*
Y4165D02*
D03*
Y4362D02*
D03*
Y4559D02*
D03*
Y4756D02*
D03*
Y4953D02*
D03*
Y5150D02*
D03*
Y5346D02*
D03*
Y5543D02*
D03*
Y5740D02*
D03*
Y5937D02*
D03*
X12674D02*
D03*
Y5740D02*
D03*
Y5543D02*
D03*
Y5346D02*
D03*
Y5150D02*
D03*
Y4953D02*
D03*
Y4756D02*
D03*
Y4559D02*
D03*
Y4362D02*
D03*
Y4165D02*
D03*
Y3968D02*
D03*
Y3772D02*
D03*
Y3575D02*
D03*
Y3378D02*
D03*
Y3181D02*
D03*
Y2984D02*
D03*
D18*
X1495Y5720D02*
D03*
Y3201D02*
D03*
D19*
X530Y4933D02*
D03*
Y3988D02*
D03*
D20*
X1642Y4205D02*
D03*
Y4972D02*
D03*
Y3949D02*
D03*
Y4717D02*
D03*
Y4461D02*
D03*
D21*
X2906Y7492D02*
D03*
X3280D02*
D03*
X3654D02*
D03*
X2906Y6468D02*
D03*
X3654D02*
D03*
X20016Y7082D02*
D03*
X20390D02*
D03*
X20764D02*
D03*
X20016Y6058D02*
D03*
X20764D02*
D03*
D22*
X1671Y7200D02*
D03*
X529D02*
D03*
D23*
X6460Y7261D02*
D03*
Y6119D02*
D03*
D24*
X2390Y7440D02*
D03*
Y6890D02*
D03*
X1550Y1580D02*
D03*
Y2130D02*
D03*
X7410Y6260D02*
D03*
Y6810D02*
D03*
D25*
X18668Y1756D02*
D03*
Y2130D02*
D03*
Y2504D02*
D03*
X19692Y1756D02*
D03*
Y2504D02*
D03*
D26*
X4339Y7100D02*
D03*
X5441D02*
D03*
D27*
X2289Y5710D02*
D03*
X3431D02*
D03*
D28*
X2490Y3345D02*
D03*
Y2595D02*
D03*
D29*
X3425Y3440D02*
D03*
X4175D02*
D03*
X3445Y2500D02*
D03*
X4195D02*
D03*
D30*
X17842Y3160D02*
D03*
Y5260D02*
D03*
X19378Y3160D02*
D03*
Y5260D02*
D03*
D31*
X22747Y1557D02*
D03*
Y7383D02*
D03*
D32*
X22275Y1530D02*
D03*
Y7410D02*
D03*
D33*
X21586Y2206D02*
D03*
Y2403D02*
D03*
Y2797D02*
D03*
Y2600D02*
D03*
Y3584D02*
D03*
Y3978D02*
D03*
Y3781D02*
D03*
Y2994D02*
D03*
Y3387D02*
D03*
Y3190D02*
D03*
Y4175D02*
D03*
Y4962D02*
D03*
Y4372D02*
D03*
Y5159D02*
D03*
Y5356D02*
D03*
Y5750D02*
D03*
Y5946D02*
D03*
Y4568D02*
D03*
Y5553D02*
D03*
Y4765D02*
D03*
Y6143D02*
D03*
Y6340D02*
D03*
Y6537D02*
D03*
Y6734D02*
D03*
D34*
X19010Y6030D02*
D03*
X18210D02*
D03*
D35*
X20390Y2870D02*
D03*
Y2070D02*
D03*
D36*
X12460Y1690D02*
X15310D01*
X12390Y1760D02*
X12460Y1690D01*
X15310D02*
X15360Y1740D01*
X11420Y3620D02*
X11560D01*
X10548Y2236D02*
Y3808D01*
X10600Y3860D01*
X10352Y2236D02*
Y4631D01*
X8200Y6840D02*
X11420Y3620D01*
X4090Y5390D02*
X4150D01*
X3850Y5630D02*
X4090Y5390D01*
X9760Y2395D02*
X9771Y2406D01*
X9760Y1648D02*
Y2395D01*
X9012Y900D02*
X9760Y1648D01*
X9370Y2398D02*
X9377Y2406D01*
X9370Y1739D02*
Y2398D01*
X8871Y1240D02*
X9370Y1739D01*
X8030Y6770D02*
Y6980D01*
X8200Y6840D02*
Y7050D01*
X7110Y8140D02*
X8200Y7050D01*
X8450Y7890D02*
X8700D01*
X7890Y8450D02*
X8450Y7890D01*
X7560Y8450D02*
X7890D01*
X6900Y8140D02*
X7110D01*
X6590Y8450D02*
X6900Y8140D01*
X7040Y7970D02*
X8030Y6980D01*
X6040Y7970D02*
X7040D01*
X6560Y8450D02*
X6590D01*
X5560D02*
X6040Y7970D01*
X8030Y6770D02*
X10080Y4720D01*
X14560Y2690D02*
X14590Y2720D01*
X12690Y2040D02*
X12800Y1930D01*
X14950D01*
X13280Y2310D02*
X13330Y2260D01*
X13720Y2720D02*
Y2730D01*
X12770Y3968D02*
X13779D01*
X13780Y3970D01*
X11139Y2236D02*
Y2851D01*
X11080Y2910D02*
X11139Y2851D01*
X10942Y1788D02*
X11110Y1620D01*
X10942Y1788D02*
Y2236D01*
X10155Y1605D02*
Y2236D01*
X12420Y2600D02*
X13030D01*
X12470Y2310D02*
X13280D01*
X11920Y2860D02*
X12470Y2310D01*
X12090Y2930D02*
X12420Y2600D01*
X11926Y1794D02*
X12240Y1480D01*
X21586Y5159D02*
X22171D01*
X20560Y450D02*
Y560D01*
X11920Y2860D02*
Y3540D01*
X12090Y2930D02*
Y3460D01*
X12205Y3575D01*
X11920Y3540D02*
X12152Y3772D01*
X12674D01*
Y5740D02*
X13130D01*
X13173Y5543D02*
X13810Y6180D01*
X12674Y5543D02*
X13173D01*
X14416Y5346D02*
X14790Y5720D01*
X12674Y5346D02*
X14416D01*
X15242Y6029D02*
Y6054D01*
X12205Y3575D02*
X12674D01*
X12666Y3780D02*
X12674Y3772D01*
X8941Y1070D02*
X9560Y1689D01*
X13245Y4165D02*
X13340Y4260D01*
X12674Y4165D02*
X13245D01*
X12040Y4360D02*
X12042Y4362D01*
X12674D01*
X8700Y7890D02*
X9367Y7223D01*
X5570Y6650D02*
Y6971D01*
X5500Y6650D02*
X5570D01*
X5040Y6190D02*
X5500Y6650D01*
X4850Y6190D02*
X5040D01*
X4650Y5990D02*
X4850Y6190D01*
X11990Y5876D02*
X12402Y6288D01*
X11990Y5310D02*
Y5876D01*
Y5310D02*
X12150Y5150D01*
X11820Y5947D02*
X12331Y6458D01*
X11820Y5240D02*
Y5947D01*
Y5240D02*
X12080Y4980D01*
X8862Y4760D02*
Y5568D01*
X11530Y6682D02*
X11533Y6685D01*
X11530Y5970D02*
Y6682D01*
X11480Y5920D02*
X11530Y5970D01*
X6400Y5570D02*
X7040D01*
X5980Y5150D02*
X6400Y5570D01*
X4890Y5150D02*
X5980D01*
X10080Y3830D02*
Y4720D01*
X4650Y5390D02*
X4890Y5150D01*
X5890Y2590D02*
X6284Y2984D01*
X5890Y2560D02*
Y2590D01*
X6740Y4140D02*
X6920D01*
X7142Y4362D01*
X5560Y2500D02*
X5800D01*
X6284Y2984D02*
X8226D01*
X7142Y4362D02*
X8226D01*
X7365Y4165D02*
X8226D01*
X7490Y2200D02*
X7500Y2210D01*
X7120Y2200D02*
X7490D01*
X9958Y2818D02*
X10040Y2900D01*
X9958Y2236D02*
Y2818D01*
X10548Y2206D02*
Y2236D01*
X11341Y7161D02*
X11510Y7330D01*
X11341Y6690D02*
Y7161D01*
X11336Y6685D02*
X11341Y6690D01*
X10745Y7386D02*
X11269Y7910D01*
X10942Y7343D02*
X11340Y7740D01*
X12020Y7910D02*
X12560Y8450D01*
X11269Y7910D02*
X12020D01*
X12940Y7740D02*
X13560Y8360D01*
X11340Y7740D02*
X12940D01*
X13440Y7570D02*
X14320Y8450D01*
X11410Y7570D02*
X13440D01*
X11139Y7299D02*
X11410Y7570D01*
X10745Y6685D02*
Y7386D01*
X10942Y6685D02*
Y7343D01*
X11139Y6685D02*
Y7299D01*
X7407Y5937D02*
X8226D01*
X7040Y5570D02*
X7407Y5937D01*
X5441Y7100D02*
X5570Y6971D01*
X4900Y5690D02*
X5105Y5895D01*
X4320Y5690D02*
X4900D01*
X4100Y5910D02*
X4320Y5690D01*
X3654Y6316D02*
X4100Y5870D01*
X3654Y6316D02*
Y6468D01*
X5987Y4500D02*
X6657Y5170D01*
X7761D02*
X7782Y5150D01*
X8226D01*
X6657Y5170D02*
X7761D01*
X7775Y5340D02*
X7782Y5346D01*
X8226D01*
X6587Y5340D02*
X7775D01*
X5917Y4670D02*
X6587Y5340D01*
X1642Y4461D02*
X2027D01*
X2066Y4500D01*
X5987D01*
X1642Y4717D02*
X2027D01*
X2074Y4670D01*
X5917D01*
X22190Y3190D02*
X22330Y3050D01*
X22340Y3060D01*
X21586Y3190D02*
X22190D01*
X11880Y7270D02*
X12240D01*
X11730Y7120D02*
X11880Y7270D01*
X11730Y6685D02*
Y7120D01*
X12240Y7270D02*
X12300Y7210D01*
X7560Y450D02*
X8010Y900D01*
X6560Y450D02*
X7180Y1070D01*
X11926Y1794D02*
Y2206D01*
X2560Y450D02*
Y600D01*
X3740Y1780D01*
X3560Y450D02*
Y600D01*
X4550Y1590D01*
X4560Y450D02*
X5520Y1410D01*
X5560Y450D02*
X6350Y1240D01*
X9180Y2236D02*
Y2406D01*
X4550Y1590D02*
X8740D01*
X8974Y1824D01*
Y2236D01*
X8800Y1410D02*
X9170Y1780D01*
X5520Y1410D02*
X8800D01*
X9170Y1780D02*
Y2236D01*
X6350Y1240D02*
X8871D01*
X7180Y1070D02*
X8941D01*
X8010Y900D02*
X9012D01*
X8226Y5740D02*
X8690D01*
X8820Y5610D01*
X8862Y5568D01*
X8226Y4752D02*
X8862D01*
X7711Y4559D02*
X8226D01*
X7590Y4680D02*
X7711Y4559D01*
X7667Y5543D02*
X8226D01*
X7550Y5660D02*
X7667Y5543D01*
X9170Y6685D02*
Y7113D01*
X8500Y7510D02*
X8774D01*
X9170Y7113D01*
X8974Y6685D02*
Y6926D01*
X8510Y7110D02*
X8790D01*
X8974Y6926D01*
X10155Y6155D02*
Y6685D01*
X10120Y6120D02*
X10155Y6155D01*
X10260Y7420D02*
X10352Y7328D01*
Y6685D02*
Y7328D01*
X3740Y1780D02*
X8520D01*
X8770Y2030D01*
X11926Y6685D02*
X11991Y6750D01*
X11336Y6186D02*
Y6685D01*
X11110Y5960D02*
X11336Y6186D01*
X12150Y5150D02*
X12674D01*
X17560Y8350D02*
Y8450D01*
X12402Y6288D02*
X12662D01*
X13560Y8360D02*
Y8450D01*
X10548Y6685D02*
Y7438D01*
X11560Y8450D01*
X9958Y6685D02*
Y7848D01*
X10560Y8450D01*
X9761Y6685D02*
Y8249D01*
X9560Y8450D02*
X9761Y8249D01*
X8560Y8450D02*
X9564Y7446D01*
Y6685D02*
Y7446D01*
X9367Y6654D02*
Y6685D01*
Y7223D01*
X12331Y6458D02*
X12591D01*
X12080Y4980D02*
X12080D01*
X12110Y4950D01*
X12672D01*
X12674Y4953D01*
X12450Y6750D02*
X12740Y7040D01*
X11991Y6750D02*
X12450D01*
X14320Y8450D02*
X14560D01*
X8226Y3772D02*
X8848D01*
X9140Y3480D01*
X9200D01*
X8226Y3575D02*
X8725D01*
X8226Y3378D02*
X8662D01*
X8770Y3270D01*
Y2030D02*
Y3270D01*
X17910Y7800D02*
X18560Y8450D01*
X14234Y7620D02*
X16190D01*
X16970D01*
X18140Y7470D02*
X18450Y7780D01*
X18970D01*
X19560Y8370D02*
Y8450D01*
X18970Y7780D02*
X19560Y8370D01*
X12674Y3181D02*
X14719D01*
X12674Y2984D02*
X14676D01*
X16000Y1660D01*
X14719Y3181D02*
X16030Y1870D01*
X15160Y3370D02*
Y3380D01*
X16140Y3980D02*
X16400D01*
X16660D01*
X16390Y4280D02*
X16400Y4270D01*
Y3980D02*
Y4270D01*
X17860Y3232D02*
X17872Y3220D01*
X17860Y5308D02*
X17872Y5320D01*
X14790Y5720D02*
X15940D01*
X15242Y6029D02*
X15956D01*
X15940Y5720D02*
X16190Y5970D01*
X16360Y4310D02*
X16440D01*
X16350Y4320D02*
X16360Y4310D01*
X16390Y4280D01*
X15590Y3900D02*
Y3980D01*
Y3900D02*
X16103Y3387D01*
X16337D01*
X21202Y4962D02*
X21586D01*
X21030Y4790D02*
X21202Y4962D01*
X18670Y6910D02*
Y7060D01*
X19560Y8450D02*
X20040Y7970D01*
X20950D01*
X20970Y6500D02*
X21100Y6630D01*
X21176Y5356D02*
X21586D01*
X20890Y5070D02*
X21176Y5356D01*
X21100Y6630D02*
Y7820D01*
X20950Y7970D02*
X21100Y7820D01*
X21586Y6537D02*
X22062D01*
X22105Y6580D01*
X21586Y5553D02*
X22367D01*
X21586Y6340D02*
X22340D01*
X22820Y5860D01*
X21586Y5946D02*
X22224D01*
X22250Y5920D01*
X21586Y4765D02*
X22055D01*
X22120Y4830D01*
X20460Y4440D02*
Y4700D01*
X20560Y4800D01*
X20764Y6058D02*
X20849Y6143D01*
X20859Y6153D01*
X20799Y6143D02*
X20849D01*
X21586D01*
X20750Y1260D02*
X21560Y450D01*
X20030Y1090D02*
X20560Y560D01*
X19090Y920D02*
X19560Y450D01*
X18158Y920D02*
X19090D01*
X12240Y1480D02*
X17598D01*
X18158Y920D01*
X16110Y2040D02*
X17760D01*
X18370Y1430D01*
X17690Y1870D02*
X18300Y1260D01*
X16000Y1660D02*
X17659D01*
X18229Y1090D01*
X16030Y1870D02*
X17690D01*
X18300Y1260D02*
X20750D01*
X18229Y1090D02*
X20030D01*
X16190Y5970D02*
X17260D01*
X18140Y6850D01*
Y7470D01*
X17842Y5260D02*
Y5408D01*
X17750Y5500D02*
X17842Y5408D01*
X17750Y5500D02*
Y6186D01*
X17944Y6380D01*
X17950D01*
X18630Y7060D01*
X18670D01*
X17860Y3232D02*
Y5308D01*
X1642Y4205D02*
X6115D01*
X6863Y4953D01*
X8226D01*
X6050Y3850D02*
X7050D01*
X7365Y4165D01*
X13130Y5740D02*
X13540Y6150D01*
X14148Y5730D02*
Y6288D01*
X14320Y6460D01*
X15310D01*
X15350Y6500D01*
X12591Y6458D02*
X14103Y7970D01*
X12662Y6288D02*
X14174Y7800D01*
X14103Y7970D02*
X17180D01*
X17560Y8350D01*
X14174Y7800D02*
X17910D01*
X16970Y7620D02*
X16980Y7610D01*
Y7550D02*
Y7610D01*
X12215Y4165D02*
X12674D01*
X12100Y4050D02*
X12215Y4165D01*
X15000Y3540D02*
X15160Y3380D01*
X14780Y3370D02*
X16110Y2040D01*
X14040Y3710D02*
X15190D01*
X15720Y3180D01*
X17300Y3449D02*
Y3970D01*
X15720Y3070D02*
Y3180D01*
Y3070D02*
X16010Y2780D01*
X16631D01*
X17300Y3449D01*
X22430Y450D02*
X22560D01*
X21920Y960D02*
X22430Y450D01*
X18370Y1430D02*
X20830D01*
X21300Y960D01*
X21920D01*
X9210Y3090D02*
Y3130D01*
X8725Y3575D02*
X9210Y3090D01*
X9460Y2900D02*
X9510D01*
X9564Y2846D01*
Y2236D02*
Y2846D01*
X9560Y1689D02*
Y2236D01*
X10155Y1605D02*
X10160Y1600D01*
X8226Y3968D02*
X9021D01*
X9150Y3840D01*
X8226Y4362D02*
X8738D01*
X8930Y4170D01*
X9140D01*
X9170Y4200D01*
X12674Y5937D02*
X12947D01*
X13190Y6180D01*
Y6576D01*
X14234Y7620D01*
X5900Y3700D02*
X6050Y3850D01*
X5810Y3700D02*
X5900D01*
X4175Y3440D02*
X4800D01*
X4810Y3450D01*
X4195Y2500D02*
X4830D01*
X5730Y3080D02*
X5850D01*
X5360Y3450D02*
X5629Y3181D01*
X5730Y3080D01*
X5629Y3181D02*
X8226D01*
X7612Y3772D02*
X8226D01*
X7320Y3480D02*
X7612Y3772D01*
X22220Y3980D02*
X22222Y3978D01*
X21586D02*
X22222D01*
X21197D02*
X21586D01*
X21119Y3900D02*
X21197Y3978D01*
X21090Y3900D02*
X21119D01*
X22367Y5553D02*
X22680Y5240D01*
X22830D01*
X22510Y4820D02*
X22960D01*
X22171Y5159D02*
X22510Y4820D01*
X13740Y4910D02*
X13940D01*
X14020Y4830D01*
X13810Y6856D02*
X13860Y6906D01*
X13810Y6180D02*
Y6856D01*
X13540Y6586D02*
X13570Y6616D01*
X13540Y6150D02*
Y6586D01*
X14420Y2320D02*
X14430Y2310D01*
X13390Y2320D02*
X14420D01*
X12674Y3378D02*
X12682Y3370D01*
X13380Y3640D02*
X13480Y3540D01*
X12682Y3370D02*
X14780D01*
X13480Y3540D02*
X15000D01*
X13720Y2720D02*
X14590D01*
X13780Y3970D02*
X14040Y3710D01*
X15050Y4250D02*
X15110Y4310D01*
X14960D02*
X15110D01*
X16360D01*
X14500Y4250D02*
Y4490D01*
X14540Y4530D01*
X17850D01*
X12674Y4559D02*
X14481D01*
X14510Y4530D01*
X14540D01*
D37*
X22580Y2720D02*
Y3170D01*
X22510Y2650D02*
X22580Y2720D01*
X22760Y2360D02*
Y3202D01*
X22710Y2310D02*
X22760Y2360D01*
X22181Y3781D02*
X22760Y3202D01*
X3530Y5630D02*
X3850D01*
X12674Y3968D02*
X12770D01*
X12042Y1170D02*
X16840D01*
X11980Y1020D02*
X15990D01*
X11530Y870D02*
X15140D01*
X11730Y1695D02*
X12104Y1320D01*
X11533Y1679D02*
X12042Y1170D01*
X11346Y1654D02*
X11980Y1020D01*
X10750Y1650D02*
X11530Y870D01*
X15140D02*
X15560Y450D01*
X15990Y1020D02*
X16560Y450D01*
X16840Y1170D02*
X17560Y450D01*
X3440Y5720D02*
X3530Y5630D01*
X3541D02*
X3850D01*
X3890Y7728D02*
Y7910D01*
X3654Y7492D02*
X3890Y7728D01*
X21586Y3387D02*
X22363D01*
X22580Y3170D01*
X22036Y2994D02*
X22210Y2820D01*
Y2100D02*
Y2820D01*
X21680Y1570D02*
X22210Y2100D01*
X21973Y2797D02*
X22060Y2710D01*
Y2162D02*
Y2710D01*
X21778Y1880D02*
X22060Y2162D01*
X21586Y2994D02*
X22036D01*
X21586Y2797D02*
X21973D01*
X21630Y1880D02*
X21778D01*
X21220Y2600D02*
X21586D01*
Y3781D02*
X22181D01*
X21174Y3584D02*
X21586D01*
X21680Y1470D02*
Y1570D01*
X12430Y580D02*
X12560Y450D01*
X10740Y2200D02*
X10745Y2206D01*
X10750Y1650D02*
Y2400D01*
X11346Y1654D02*
Y2406D01*
X11533Y1679D02*
Y2206D01*
X11543D02*
Y2406D01*
X11730Y1695D02*
Y2206D01*
X15560Y8340D02*
Y8450D01*
X11139Y6654D02*
Y6685D01*
X10745Y6654D02*
Y6685D01*
X10548Y6654D02*
Y6685D01*
X9958Y6654D02*
Y6685D01*
X9761Y6654D02*
Y6685D01*
X9564Y6654D02*
Y6685D01*
X11926Y6654D02*
X11942Y6670D01*
X21202Y4372D02*
X21586D01*
X20560Y8450D02*
X20730D01*
X22570Y6440D02*
X22710D01*
X21810Y7200D02*
X22570Y6440D01*
X21130Y5750D02*
X21586D01*
X20730Y8450D02*
X21810Y7370D01*
Y7200D02*
Y7370D01*
X21000Y2660D02*
Y3410D01*
X21174Y3584D01*
X20840Y2500D02*
X21000Y2660D01*
X20840Y2390D02*
Y2500D01*
X18402Y450D02*
X18560D01*
X12104Y1320D02*
X17532D01*
X18402Y450D01*
X21000Y4170D02*
X21202Y4372D01*
X21000Y4170D02*
X21020Y4150D01*
Y4140D02*
Y4150D01*
X21100Y1830D02*
X21310Y1620D01*
X21100Y1830D02*
Y2480D01*
X21220Y2600D01*
X21586Y4568D02*
X22332D01*
X21586Y4175D02*
X22425D01*
X22830Y3770D01*
X20980Y5600D02*
X21130Y5750D01*
X22332Y4568D02*
X22700Y4200D01*
X22910D01*
X12709Y4760D02*
X12719Y4750D01*
X13330D02*
X13390Y4810D01*
X12719Y4750D02*
X13330D01*
X22830Y3770D02*
X22860Y3800D01*
Y3850D01*
X20970Y5610D02*
X20980Y5600D01*
X20970Y5610D02*
Y5620D01*
D38*
X5520Y5510D02*
X5960D01*
X5410Y5430D02*
X5850D01*
X5070Y5440D02*
X5510D01*
X1861Y7010D02*
X2390D01*
X6470Y7251D02*
X6879D01*
X5740Y5420D02*
Y5860D01*
X2770Y7960D02*
X3160D01*
X2765Y7955D02*
X2770Y7960D01*
X2615Y7955D02*
X2765D01*
X2540Y7880D02*
X2615Y7955D01*
X3160Y7960D02*
X3250Y7870D01*
X529Y7880D02*
Y8419D01*
Y7200D02*
Y7880D01*
X2540D01*
X6221Y5860D02*
X6470Y6109D01*
X5740Y5860D02*
X6221D01*
X530Y3501D02*
Y6099D01*
X529Y6100D02*
X530Y6099D01*
X529Y6100D02*
Y7200D01*
Y8419D02*
X560Y8450D01*
X2390Y6890D02*
X2480D01*
X2902Y6468D01*
X2906D01*
Y6454D02*
Y6468D01*
Y6454D02*
X3440Y5920D01*
Y5720D02*
Y5920D01*
X6879Y7251D02*
X7260Y6870D01*
X7390D01*
X13340Y4260D02*
X13603D01*
X13637Y4293D01*
X2290Y5630D02*
X2320Y5600D01*
X2290Y5630D02*
Y5950D01*
D39*
X16690Y6950D02*
X17080Y6560D01*
X3300Y3405D02*
X3445Y3550D01*
X2480Y3405D02*
X3300D01*
X17620Y2410D02*
X17724Y2514D01*
X18210Y2464D02*
X18250Y2504D01*
X17724Y2514D02*
X18300D01*
X19692Y2504D02*
X20014D01*
X18250D02*
X18500D01*
X17080Y6260D02*
Y6560D01*
X17220Y4870D02*
Y5496D01*
X17203Y5513D02*
X17220Y5496D01*
X15557Y4807D02*
X15620Y4870D01*
X15257Y4807D02*
X15557D01*
X15230Y4780D02*
X15257Y4807D01*
X20720Y7650D02*
X20764Y7606D01*
Y7082D02*
Y7606D01*
Y6754D02*
Y7082D01*
X20610Y6600D02*
X20764Y6754D01*
X20390Y7082D02*
Y7430D01*
X20170Y7650D02*
X20390Y7430D01*
X20016Y6744D02*
Y7082D01*
Y6744D02*
X20160Y6600D01*
X20610D01*
X19378Y3160D02*
Y5260D01*
X20014Y2504D02*
X20590Y3080D01*
X16337Y5513D02*
X16420Y5430D01*
X16170Y4870D02*
X16420D01*
X16670D01*
X16420D02*
Y5430D01*
X20560Y4800D02*
Y5310D01*
X20570Y5320D01*
Y5864D02*
X20764Y6058D01*
X18210Y1980D02*
Y2464D01*
Y1980D02*
X18434Y1756D01*
X18668D01*
X19458Y6020D02*
X19469Y6031D01*
X18990Y6020D02*
X19420D01*
X19458D01*
X20570Y5320D02*
Y5640D01*
Y5864D01*
X6540Y3490D02*
X6560D01*
X6830D01*
X6870Y3530D01*
X6540Y3490D02*
X6590Y3540D01*
X20640Y3090D02*
Y4210D01*
X21030Y4600D01*
Y4790D01*
D40*
X14570Y4830D02*
X14636D01*
X15242Y5306D02*
X15296Y5360D01*
X1955Y2130D02*
X2480Y2655D01*
X1550Y2130D02*
X1955D01*
X1560Y680D02*
Y1570D01*
Y450D02*
Y680D01*
X1550Y1580D02*
X1560Y1570D01*
X19593Y6331D02*
X19611Y6349D01*
X19469Y6331D02*
X19593D01*
X19482Y5959D02*
X19781Y5660D01*
X19561Y6339D02*
X19956Y6734D01*
X14870Y5010D02*
Y5054D01*
X15172Y5356D01*
X19781Y5660D02*
X20550D01*
X20570Y5640D01*
X14636Y4830D02*
X14883Y5077D01*
D41*
X6319Y7100D02*
X6470Y7251D01*
X5441Y7100D02*
X6319D01*
D42*
X2170Y5270D02*
Y5591D01*
X1980Y5080D02*
X2170Y5270D01*
X3280Y7492D02*
Y7840D01*
X3250Y7870D02*
X3280Y7840D01*
X8040Y6260D02*
X8050Y6270D01*
X7410Y6260D02*
X8040D01*
X6470Y6109D02*
X6681Y6320D01*
X6570Y2200D02*
X6590Y2220D01*
Y2610D01*
X3445Y2500D02*
Y3550D01*
X2895Y2015D02*
X6385D01*
X1560Y680D02*
X2895Y2015D01*
X6385D02*
X6570Y2200D01*
X2906Y7124D02*
Y7492D01*
Y7124D02*
X3030Y7000D01*
X6681Y6320D02*
X7390D01*
X18510Y3680D02*
X18550Y3640D01*
Y2514D02*
Y3640D01*
X2170Y5591D02*
X2289Y5710D01*
D43*
X1872Y4972D02*
X1980Y5080D01*
X1642Y4972D02*
X1872D01*
D44*
X2390Y7730D02*
X2540Y7880D01*
X2390Y7440D02*
Y7730D01*
X4239Y7000D02*
X4339Y7100D01*
X3030Y7000D02*
X4239D01*
D45*
X530Y5760D02*
D03*
Y3161D02*
D03*
D46*
X1560Y8450D02*
D03*
X2560D02*
D03*
X3560D02*
D03*
X4560D02*
D03*
X5560D02*
D03*
X6560D02*
D03*
X7560D02*
D03*
X8560D02*
D03*
X9560D02*
D03*
X10560D02*
D03*
X11560D02*
D03*
X12560D02*
D03*
X13560D02*
D03*
X14560D02*
D03*
X15560D02*
D03*
X16560D02*
D03*
X17560D02*
D03*
X18560D02*
D03*
X19560D02*
D03*
X20560D02*
D03*
X21560D02*
D03*
X22560D02*
D03*
X23560D02*
D03*
X22560Y450D02*
D03*
X21560D02*
D03*
X20560D02*
D03*
X19560D02*
D03*
X18560D02*
D03*
X17560D02*
D03*
X16560D02*
D03*
X15560D02*
D03*
X14560D02*
D03*
X13560D02*
D03*
X12560D02*
D03*
X11560D02*
D03*
X10560D02*
D03*
X9560D02*
D03*
X8560D02*
D03*
X7560D02*
D03*
X6560D02*
D03*
X5560D02*
D03*
X4560D02*
D03*
X3560D02*
D03*
X2560D02*
D03*
X1560D02*
D03*
X560D02*
D03*
X16337Y5513D02*
D03*
X17203D02*
D03*
Y3387D02*
D03*
X16337D02*
D03*
X17670Y7060D02*
D03*
X14670D02*
D03*
X16670D02*
D03*
X15670D02*
D03*
D47*
X560Y8450D02*
D03*
X23560Y450D02*
D03*
X18670Y7060D02*
D03*
D48*
X1860Y2390D02*
D03*
X1470Y2560D02*
D03*
X970Y5520D02*
D03*
X8110Y2630D02*
D03*
X7180Y2640D02*
D03*
X6910Y4580D02*
D03*
X11070Y740D02*
D03*
X15160Y7220D02*
D03*
X23710Y1250D02*
D03*
X23520Y7710D02*
D03*
X23330Y7330D02*
D03*
X23520Y1630D02*
D03*
X23330Y1250D02*
D03*
X23140Y6190D02*
D03*
Y5430D02*
D03*
Y870D02*
D03*
X19910Y4290D02*
D03*
Y3530D02*
D03*
X19530Y7330D02*
D03*
Y4290D02*
D03*
X19150Y7330D02*
D03*
X19340Y6950D02*
D03*
Y4670D02*
D03*
X19150Y4290D02*
D03*
X19340Y3910D02*
D03*
X18960Y5430D02*
D03*
Y4670D02*
D03*
Y3910D02*
D03*
Y3150D02*
D03*
X18200D02*
D03*
X17250Y7330D02*
D03*
X11550Y5050D02*
D03*
X11360Y5430D02*
D03*
X11170Y5050D02*
D03*
X11360Y4670D02*
D03*
X10980Y5430D02*
D03*
X10790Y5050D02*
D03*
X10980Y4670D02*
D03*
X10600Y5430D02*
D03*
X10410Y5050D02*
D03*
X10220Y5430D02*
D03*
X10030Y490D02*
D03*
X9650Y4290D02*
D03*
Y3530D02*
D03*
X9270Y5050D02*
D03*
X9460Y4670D02*
D03*
Y3910D02*
D03*
X9080Y8470D02*
D03*
X6230Y3530D02*
D03*
X5660Y6190D02*
D03*
X5090Y8090D02*
D03*
Y490D02*
D03*
X4900Y6950D02*
D03*
X4710Y1250D02*
D03*
X4330Y5050D02*
D03*
X4140Y3910D02*
D03*
X3760D02*
D03*
X3570Y1250D02*
D03*
X3190Y8090D02*
D03*
X3380Y3910D02*
D03*
X2810Y5810D02*
D03*
Y5050D02*
D03*
X3000Y3910D02*
D03*
Y3150D02*
D03*
Y2390D02*
D03*
Y1630D02*
D03*
X2810Y1250D02*
D03*
X2430Y5050D02*
D03*
X2620Y3910D02*
D03*
X2430Y2010D02*
D03*
X2050Y8090D02*
D03*
Y6570D02*
D03*
X2240Y3910D02*
D03*
X2050Y3530D02*
D03*
Y2770D02*
D03*
X2240Y870D02*
D03*
X2050Y490D02*
D03*
X1670Y6570D02*
D03*
X1860Y6190D02*
D03*
X1290Y6570D02*
D03*
Y1250D02*
D03*
X910Y6570D02*
D03*
X1100Y6190D02*
D03*
X910Y2010D02*
D03*
X1100Y1630D02*
D03*
X910Y1250D02*
D03*
X1100Y870D02*
D03*
X530Y6570D02*
D03*
X720Y6190D02*
D03*
D49*
X11560Y3620D02*
D03*
X10600Y3860D02*
D03*
X22510Y2650D02*
D03*
X7770Y7890D02*
D03*
X6770Y7511D02*
D03*
X6130Y7491D02*
D03*
X14560Y2690D02*
D03*
X14950Y1930D02*
D03*
X13720Y2730D02*
D03*
X13380Y3640D02*
D03*
X15360Y1740D02*
D03*
X11080Y2910D02*
D03*
X11110Y1620D02*
D03*
X13030Y2600D02*
D03*
X12690Y2040D02*
D03*
X13390Y2310D02*
D03*
X12390Y1760D02*
D03*
X13340Y4260D02*
D03*
X12040Y4360D02*
D03*
X5100Y5420D02*
D03*
X3850Y5630D02*
D03*
X3890Y7910D02*
D03*
X8050Y6270D02*
D03*
X5840Y5420D02*
D03*
X5460D02*
D03*
X5850Y3080D02*
D03*
X5890Y2560D02*
D03*
X6590Y2610D02*
D03*
X6740Y4140D02*
D03*
X7500Y2210D02*
D03*
X10040Y2900D02*
D03*
X10080Y3830D02*
D03*
X11510Y7330D02*
D03*
X6470Y7251D02*
D03*
X22340Y3060D02*
D03*
X21630Y1880D02*
D03*
X21680Y1470D02*
D03*
X21310Y1620D02*
D03*
X22820Y5860D02*
D03*
X9200Y3480D02*
D03*
X8820Y5610D02*
D03*
X7590Y4680D02*
D03*
X7550Y5660D02*
D03*
X8500Y7510D02*
D03*
X8510Y7110D02*
D03*
X10120Y6120D02*
D03*
X10260Y7420D02*
D03*
X11480Y5920D02*
D03*
X12740Y7040D02*
D03*
X12300Y7210D02*
D03*
X15160Y3370D02*
D03*
X16390Y4280D02*
D03*
X15230Y4780D02*
D03*
X20160Y6600D02*
D03*
X20610D02*
D03*
X14870Y5010D02*
D03*
X20970Y6500D02*
D03*
X22710Y6440D02*
D03*
X20890Y5070D02*
D03*
X22105Y6580D02*
D03*
X22250Y5920D02*
D03*
X22120Y4830D02*
D03*
X20460Y4440D02*
D03*
X20840Y2390D02*
D03*
X8860Y4790D02*
D03*
X15350Y6500D02*
D03*
X16980Y7550D02*
D03*
X9210Y3130D02*
D03*
X9460Y2900D02*
D03*
X10160Y1600D02*
D03*
X9150Y3840D02*
D03*
X9170Y4200D02*
D03*
X5810Y3700D02*
D03*
X6560Y3490D02*
D03*
X18510Y3680D02*
D03*
X21020Y4140D02*
D03*
X2290Y5950D02*
D03*
X2320Y5600D02*
D03*
X22830Y5240D02*
D03*
X22960Y4820D02*
D03*
X22910Y4200D02*
D03*
X13740Y4910D02*
D03*
X13390Y4810D02*
D03*
X13860Y6906D02*
D03*
X13570Y6616D02*
D03*
X14430Y2310D02*
D03*
X13880Y3910D02*
D03*
X22710Y2310D02*
D03*
X22860Y3850D02*
D03*
X20970Y5620D02*
D03*
M02*
