G04 Layer_Color=255*
%FSLAX24Y24*%
%MOIN*%
G70*
G01*
G75*
%ADD12R,0.0300X0.0300*%
%ADD24R,0.0300X0.0300*%
%ADD45C,0.0551*%
%ADD46C,0.0591*%
%ADD47R,0.0591X0.0591*%
%ADD50R,0.0335X0.0394*%
D12*
X7930Y4730D02*
D03*
X8480D02*
D03*
X13010Y4390D02*
D03*
X12460D02*
D03*
X8470Y5740D02*
D03*
X7920D02*
D03*
X9460Y6860D02*
D03*
X8910D02*
D03*
X9450Y7550D02*
D03*
X8900D02*
D03*
D24*
X11520Y6980D02*
D03*
Y6430D02*
D03*
X10170Y6980D02*
D03*
Y6430D02*
D03*
X10180Y2010D02*
D03*
Y2560D02*
D03*
X11170Y2070D02*
D03*
Y2620D02*
D03*
D45*
X530Y5760D02*
D03*
Y3161D02*
D03*
D46*
X1560Y8450D02*
D03*
X2560D02*
D03*
X3560D02*
D03*
X4560D02*
D03*
X5560D02*
D03*
X6560D02*
D03*
X7560D02*
D03*
X8560D02*
D03*
X9560D02*
D03*
X10560D02*
D03*
X11560D02*
D03*
X12560D02*
D03*
X13560D02*
D03*
X14560D02*
D03*
X15560D02*
D03*
X16560D02*
D03*
X17560D02*
D03*
X18560D02*
D03*
X19560D02*
D03*
X20560D02*
D03*
X21560D02*
D03*
X22560D02*
D03*
X23560D02*
D03*
X22560Y450D02*
D03*
X21560D02*
D03*
X20560D02*
D03*
X19560D02*
D03*
X18560D02*
D03*
X17560D02*
D03*
X16560D02*
D03*
X15560D02*
D03*
X14560D02*
D03*
X13560D02*
D03*
X12560D02*
D03*
X11560D02*
D03*
X10560D02*
D03*
X9560D02*
D03*
X8560D02*
D03*
X7560D02*
D03*
X6560D02*
D03*
X5560D02*
D03*
X4560D02*
D03*
X3560D02*
D03*
X2560D02*
D03*
X1560D02*
D03*
X560D02*
D03*
X16337Y5513D02*
D03*
X17203D02*
D03*
Y3387D02*
D03*
X16337D02*
D03*
X17670Y7060D02*
D03*
X14670D02*
D03*
X16670D02*
D03*
X15670D02*
D03*
D47*
X560Y8450D02*
D03*
X23560Y450D02*
D03*
X18670Y7060D02*
D03*
D50*
X7886Y7395D02*
D03*
X7354D02*
D03*
X7886Y6725D02*
D03*
X7354D02*
D03*
M02*
